<svg width="360" height="360" viewBox="0 0 360 360" fill="none" xmlns="http://www.w3.org/2000/svg">
    <path d="M195.235 272.7h-74.988v57.838h74.988V272.7z" fill="#EBEBEB"/>
    <path d="M176.45 330.134c-.1 0-.187-12.895-.187-28.8 0-15.904.087-28.8.187-28.8.101 0 .188 12.896.188 28.8 0 15.905-.087 28.8-.188 28.8z" fill="#E0E0E0"/>
    <path d="M188.877 317.376h-5.745v6.502h5.745v-6.502z" fill="#FAFAFA"/>
    <path d="M151.647 272.851h-8.518v12.341h8.518v-12.341zM151.647 318.024h-8.518v12.341h8.518v-12.341z" fill="#E0E0E0"/>
    <path d="M331.308 258.199H236.75v72.929h94.558v-72.929z" fill="#EBEBEB"/>
    <path d="M307.613 330.61c-.101 0-.187-16.251-.187-36.303 0-20.052.086-36.302.187-36.302s.187 16.25.187 36.302-.079 36.303-.187 36.303z" fill="#E0E0E0"/>
    <path d="M323.287 314.525h-7.25v8.194h7.25v-8.194z" fill="#FAFAFA"/>
    <path d="M276.336 258.386h-10.742v15.56h10.742v-15.56zM276.336 315.346h-10.742v15.559h10.742v-15.559z" fill="#E0E0E0"/>
    <path d="M58.651 260.345c3.83-1.973 8.338-2.232 12.586-1.527 2.282.375 4.658 1.059 6.213 2.772 1.555 1.714 1.843 4.731.065 6.207-1.066.878-2.541 1.008-3.924.993-3.326-.043-7.013-.626-9.67 1.376-1.519 1.144-2.527 3.038-4.32 3.6-1.792.561-3.772-.497-4.708-2.096a7.306 7.306 0 0 1-.533-5.407 8.246 8.246 0 0 1 4.291-5.918zM49.881 243.418c2.34 3.34 6.89 2.239 9 .194 2.11-2.045 3.003-4.997 3.81-7.812 1.857-6.444 3.722-13.205 2.346-19.764a10.935 10.935 0 0 0-2.527-5.371 5.762 5.762 0 0 0-5.429-1.807c-2.296.604-3.722 2.88-4.752 4.989a47.013 47.013 0 0 0-4.65 20.211c0 3.261.366 6.674 2.202 9.36zM43.46 248.213c2.54-3.017 3.023-7.409 1.893-11.189-1.13-3.78-3.687-6.991-6.631-9.619a35.715 35.715 0 0 0-11.866-6.999 12.662 12.662 0 0 0-5.342-.907 5.593 5.593 0 0 0-4.479 2.707c-1.253 2.384-.05 5.271 1.246 7.632a90.605 90.605 0 0 0 7.79 11.873c2.34 3.01 5.04 5.983 8.575 7.344 3.536 1.361 7.265 1.203 9.152-1.267" fill="#EBEBEB"/>
    <path d="M49.723 293.832a7.257 7.257 0 0 0 .216-1.512c.108-1.109.238-2.498.404-4.147.206-2.04.516-4.068.928-6.077a46.503 46.503 0 0 1 2.21-7.2 26.64 26.64 0 0 1 3.666-6.48 13.847 13.847 0 0 1 4.63-3.852 13.042 13.042 0 0 1 3.902-1.21 7.026 7.026 0 0 0 1.512-.223 7.02 7.02 0 0 0-1.534 0 11.776 11.776 0 0 0-4.068 1.059 13.63 13.63 0 0 0-4.889 3.888 25.689 25.689 0 0 0-3.801 6.616 44.043 44.043 0 0 0-2.16 7.294 52.805 52.805 0 0 0-.814 6.156c-.13 1.764-.18 3.19-.202 4.176a7.196 7.196 0 0 0 0 1.512z" fill="#E0E0E0"/>
    <path d="M50.011 290.65c.043-.238.057-.48.043-.72v-2.016c0-1.75 0-4.284.087-7.409.158-6.25.72-12.96 1.735-22.457.986-8.921 2.304-19.296 3.7-26.042.296-1.534.599-2.916.886-4.126.288-1.21.497-2.261.72-3.103.224-.843.346-1.44.476-1.959a2.95 2.95 0 0 0 .122-.72c-.108.21-.19.433-.245.663-.158.511-.352 1.145-.59 1.929-.238.785-.526 1.88-.828 3.082a108.115 108.115 0 0 0-.972 4.118 228.209 228.209 0 0 0-3.895 24.164c-1.037 9.504-1.505 18.158-1.548 24.422 0 3.132 0 5.674.108 7.423.05.814.093 1.483.122 2.009a3.11 3.11 0 0 0 .08.742z" fill="#E0E0E0"/>
    <path d="M50.054 273.96c.055-.702.055-1.407 0-2.11-.079-1.353-.266-3.304-.648-5.702a75.072 75.072 0 0 0-1.886-8.309 68.653 68.653 0 0 0-3.478-9.835 52.286 52.286 0 0 0-10.202-15.883 25.295 25.295 0 0 0-2.405-2.232c-.367-.317-.72-.627-1.022-.871l-.893-.641a12.788 12.788 0 0 0-1.778-1.138c-.101.137 2.512 1.678 5.81 5.184a55.156 55.156 0 0 1 9.95 15.84 76.42 76.42 0 0 1 3.492 9.742 84.605 84.605 0 0 1 1.966 8.222c.432 2.369.72 4.32.835 5.645.031.702.118 1.4.26 2.088z" fill="#E0E0E0"/>
    <path d="m32.803 300.859 1.67 22.918h29.441l1.67-22.918h-32.78zM69.091 291.83H29.96v9.029H69.09v-9.029z" fill="#EBEBEB"/>
    <path d="M29.96 322.898v2.499H68.45v-2.499H29.96z" fill="#E0E0E0"/>
    <path d="m33.602 329.53-1.8-4.407h35.244l-2.102 4.407H33.602z" fill="#E0E0E0"/>
    <path d="M65.037 308.347c-.036.077-.082.15-.136.216-.116.151-.267.346-.44.583l-1.713 2.16-.08.101-.071-.101-4.212-5.825h.237l-4.147 5.868-.13.188-.144-.173-4.917-5.854h.28l-.266.346-4.399 5.508-.151.187-.13-.194-4.154-5.868h.245l-5.112 5.817-.087.108-.072-.122-1.598-2.65c-.173-.288-.303-.525-.41-.72a1.102 1.102 0 0 1-.13-.259c.067.069.125.146.173.23l.453.684 1.678 2.643h-.159l5.04-5.89.123-.151.115.158 4.19 5.847h-.273l4.385-5.523c.093-.115.187-.23.266-.338l.144-.18.144.173 4.903 5.868h-.273l4.19-5.839.122-.173.116.173c1.663 2.368 3.074 4.377 4.125 5.889h-.151l1.786-2.16c.194-.223.352-.403.475-.554a1.65 1.65 0 0 1 .165-.173zM65.995 300.708c0 .101-7.38.187-16.474.187-9.093 0-16.473-.086-16.473-.187s7.373-.18 16.473-.18c9.101 0 16.474.079 16.474.18z" fill="#F5F5F5"/>
    <path d="m272.464 40.897-6.034.032.163 30.024 6.033-.033-.162-30.023z" fill="#E0E0E0"/>
    <path d="m229.783 40.977-15.623.084.089 16.574 15.624-.084-.09-16.574z" fill="#EBEBEB"/>
    <path d="m245.335 40.892-15.624.085.09 16.574 15.623-.084-.089-16.575z" fill="#F5F5F5"/>
    <path d="M214.178 45.648c10.388.086 20.78.038 31.176-.144a.165.165 0 1 0 0-.331c-10.382-.058-20.793 0-31.176.194a.144.144 0 0 0-.08.05.14.14 0 0 0 0 .18c.02.026.049.044.08.051z" fill="#E0E0E0"/>
    <path d="m232.81 57.275-28.39.154.073 13.507 28.39-.154-.073-13.507z" fill="#EBEBEB"/>
    <path d="m261.061 57.123-28.389.153.073 13.507 28.389-.154-.073-13.507z" fill="#F5F5F5"/>
    <path d="M204.437 61.2c18.857.209 37.778 0 56.642-.28a.165.165 0 0 0 .117-.05.162.162 0 0 0 .049-.116.165.165 0 0 0-.166-.166c-18.856-.1-37.785-.093-56.642.324a.145.145 0 0 0-.144.144.144.144 0 0 0 .144.144zM303.804 70.949H193.817v4.838h109.987V70.95z" fill="#E0E0E0"/>
    <path d="M216.288 73.274h-4.464v16.51h4.464v-16.51zM282.939 73.274h-4.464v16.51h4.464v-16.51z" fill="#E0E0E0"/>
    <path d="m278.35 29.698-6.033.032.223 41.292 6.034-.033-.224-41.291z" fill="#EBEBEB"/>
    <path d="m287.774 37.387-9.375.05.181 33.466 9.375-.051-.181-33.465z" fill="#F5F5F5"/>
    <path d="M287.712 43.848c-3.117.22-6.244.22-9.36 0 3.116-.21 6.243-.21 9.36 0zM287.712 42.48a34.98 34.98 0 0 1-4.687.158 35.094 35.094 0 0 1-4.688-.158c3.117-.22 6.244-.22 9.36 0h.015zM287.712 65.83c-3.117.22-6.244.22-9.36 0 3.116-.211 6.243-.211 9.36 0zM287.712 64.426c-3.117.21-6.244.21-9.36 0 3.116-.22 6.243-.22 9.36 0zM283.176 61.358c-.086 0-.158-3.376-.158-7.538 0-4.162.072-7.546.158-7.546.086 0 .166 3.377.166 7.546 0 4.169-.072 7.538-.166 7.538z" fill="#E0E0E0"/>
    <path d="M298.022 45.62H287.82v25.257h10.202V45.619z" fill="#EBEBEB"/>
    <path d="M275.242 38.498a1.735 1.735 0 1 0 0-3.47 1.735 1.735 0 0 0 0 3.47zM275.782 41.537h-1.073v24.566h1.073V41.537z" fill="#E0E0E0"/>
    <path d="M334.555 330.732c0 .108-69.206.187-154.548.187-85.341 0-154.562-.079-154.562-.187s69.192-.187 154.562-.187c85.371 0 154.548.086 154.548.187zM107.431 66.492a23.04 23.04 0 0 1 5.199 14.731c-.036 3.038-.598 6.386 1.173 8.856 1.339 1.872 3.787 2.815 4.875 4.846 1.31 2.44.194 5.529 1 8.179 1.138 3.758 5.544 5.335 8.158 8.266a10.446 10.446 0 0 1 2.16 9.561 10.736 10.736 0 0 1-6.754 7.143 7.002 7.002 0 0 1-5.342-.087c-1.764-.878-2.88-2.685-3.744-4.449-1.735-3.471-16.978-22.227-17.842-26.014M96.343 62.071c-6.235-1.008-12.24 3.132-14.853 8.878-2.614 5.745-2.7 12.24-2.88 18.576-.18 6.336-.641 12.902-3.86 18.331-2.044 3.449-5.212 6.48-5.71 10.447-.446 3.557 1.398 7.142.786 10.678-.533 3.081-2.88 5.76-2.787 8.877.115 3.759 3.982 6.588 7.733 6.689 3.751.101 7.265-1.865 10.21-4.198a39.237 39.237 0 0 0 11.21-14.248" fill="#263238"/>
    <path d="M86.083 76.932A11.802 11.802 0 0 1 96.696 63.72c6.286-.605 11.88 4.082 12.823 10.332.828 5.479 1.534 11.009 1.512 13.017-.079 6.056-3.6 8.41-5.04 9.123a8.101 8.101 0 0 1-1.598.396v.043l1.339 6.955c.612 4.558-1.93 8.64-6.48 9.281-4.55.641-8.129-2.837-8.827-7.394l-4.342-28.541z" fill="#FFBE9D"/>
    <path d="M108.281 76.702c-.101.144-.9-.281-1.923-.13-1.022.151-1.706.77-1.836.662-.129-.108 0-.288.317-.576a2.65 2.65 0 0 1 1.44-.72 2.519 2.519 0 0 1 1.555.26c.36.23.497.446.447.504zM99.166 78.92c-.101.143-.9-.289-1.93-.138-1.03.151-1.7.778-1.829.67-.13-.108 0-.295.317-.576a2.65 2.65 0 0 1 1.44-.72 2.577 2.577 0 0 1 1.555.266c.353.224.497.432.447.497zM102.902 84.413a6.772 6.772 0 0 1 1.62-.54c.26-.065.497-.152.519-.339a1.356 1.356 0 0 0-.288-.72L103.68 80.9c-1.49-2.678-2.606-4.896-2.498-4.96.108-.066 1.44 2.073 2.88 4.751.367.663.72 1.296 1.036 1.894.21.293.311.649.288 1.008a.646.646 0 0 1-.374.446c-.14.062-.288.105-.439.13a6.486 6.486 0 0 1-1.671.245z" fill="#263238"/>
    <path d="M104.335 96.595s-3.909.9-9.295-1.353c0 0 2.326 5.003 9.662 3.225l-.367-1.872z" fill="#EB996E"/>
    <path d="M98.64 76.233c-.058.296-1.102.31-2.282.634-1.181.324-2.11.785-2.304.562-.087-.108.043-.396.396-.72a4.118 4.118 0 0 1 3.492-.908c.475.108.698.296.698.432zM107.438 74.433c-.144.26-.885.123-1.735.23-.849.109-1.548.39-1.749.166-.087-.107 0-.352.273-.619a2.394 2.394 0 0 1 1.354-.59c.496-.06.998.033 1.44.266.345.195.482.418.417.547zM96.94 80.244a.85.85 0 0 0 .973.72.822.822 0 0 0 .72-.922.857.857 0 0 0-.972-.72.814.814 0 0 0-.72.922zM106.02 78.278a.858.858 0 0 0 .972.72.825.825 0 0 0 .698-.599.816.816 0 0 0 .022-.322.858.858 0 0 0-.972-.72.813.813 0 0 0-.72.921z" fill="#263238"/>
    <path d="M104.515 86.4a1.266 1.266 0 0 0-1.497.62 1.311 1.311 0 0 0 .18 1.52 1.157 1.157 0 0 0 1.497.106c.278-.252.446-.604.468-.979a1.382 1.382 0 0 0-.23-.979.786.786 0 0 0-.915-.274" fill="#EB996E"/>
    <path d="M108.72 69.12a9.27 9.27 0 0 0-3.946-5.544 10.293 10.293 0 0 0-5.515-1.937c-1.999-.086-3.951.623-5.428 1.973a5.645 5.645 0 0 0-1.671 3.924l.115-1.008a3.673 3.673 0 0 0 0 2.541c.166.44.367.886.54 1.325a5.689 5.689 0 0 0 2.693 2.93 3.702 3.702 0 0 0 1.8.44 2.16 2.16 0 0 0 1.634-.8 3.6 3.6 0 0 0 .39-2.577 6.156 6.156 0 0 0 1.965 2.16 2.158 2.158 0 0 0 2.707-.31c.59-.72.36-1.857 0-2.75a5.44 5.44 0 0 0 2.254 1.937 2.007 2.007 0 0 0 1.605.173 1.565 1.565 0 0 0 .835-1.08 3.29 3.29 0 0 0 .022-1.397z" fill="#263238"/>
    <path d="M103.515 71.035c-.065 0-.051-.857-.332-2.16a8.235 8.235 0 0 0-2.484-4.514 5.894 5.894 0 0 0-2.49-1.347 5.416 5.416 0 0 0-2.32-.057 6.691 6.691 0 0 0-2 .828s.122-.18.438-.41a4.423 4.423 0 0 1 1.505-.678 5.387 5.387 0 0 1 2.455 0 6.094 6.094 0 0 1 2.664 1.44 8.056 8.056 0 0 1 2.499 4.745c.085.538.129 1.082.129 1.627.009.178-.013.356-.064.526z" fill="#455A64"/>
    <path d="M169.826 154.98 142.142 144s-14.176-18.598-13.881-18.958l-9.958 10.901 14.472 19.577 33.545 7.862 5.76-1.598c-1.267-6.113-2.254-6.804-2.254-6.804z" fill="#FFBE9D"/>
    <path d="m109.49 101.923-3.772-1.44-16.287 2.067v2.88l-.468.057a33.385 33.385 0 0 0-9.972 3.874 17.02 17.02 0 0 0-7.92 17.33c.663 4.119 1.944 9.123 4.421 12.017 4.73 5.537 9.05-1.303 9.05-1.303s2.967 6.768 2.794 9.972c-.144 2.685-1.325 8.273-1.706 10.015a.526.526 0 0 0 .424.634l34.359 6.357.165-8.402-1.094-34.56L117.936 108s.05-6.408-8.446-6.077z" fill="#F2224F"/>
    <path d="m117.41 105.768 13.104 18.929-10.548 12.844-2.556-31.773z" fill="#F2224F"/>
    <path d="M120.24 145.598a8.202 8.202 0 0 1-.05-1.224c0-.849 0-1.965-.043-3.326a100.99 100.99 0 0 0-.785-10.922c-.54-4.248-1.368-8.043-1.995-10.8l-.763-3.24a8.54 8.54 0 0 1-.245-1.196c.164.374.294.762.389 1.16.223.72.526 1.85.871 3.218a88.101 88.101 0 0 1 2.117 10.8c.463 3.639.689 7.304.677 10.973 0 1.44-.036 2.549-.079 3.333.003.41-.028.82-.094 1.224z" fill="#263238"/>
    <path d="M87.984 116.82c0 .057-.994.05-2.585.129-2.076.113-4.141.38-6.177.8a42.817 42.817 0 0 0-5.99 1.72c-1.498.555-2.398.965-2.427.908.184-.145.388-.264.604-.353.396-.216.987-.49 1.728-.799a33.519 33.519 0 0 1 12.24-2.535c.807 0 1.44 0 1.909.043a2.29 2.29 0 0 1 .698.087zM118.332 125.482a6.403 6.403 0 0 1-1.635.36c-2.662.388-5.359.48-8.042.273a6.446 6.446 0 0 1-1.656-.245 9.504 9.504 0 0 1 1.67 0h4.004c1.562 0 2.973-.158 3.996-.252a9.171 9.171 0 0 1 1.663-.136zM124.344 116.921a10.178 10.178 0 0 1-2.808 2.268 9.885 9.885 0 0 1-3.305 1.44c-.043-.101 1.44-.72 3.111-1.786 1.67-1.065 2.93-2.009 3.002-1.922zM119.052 108.144a13.58 13.58 0 0 1-8.215 3.456c0-.115 1.98-.418 4.255-1.39s3.888-2.16 3.96-2.066zM119.765 140.141c-.212.142-.439.26-.677.352-.454.216-1.109.483-1.944.792-2.17.78-4.41 1.349-6.689 1.7a35.385 35.385 0 0 1-6.89.381 24.227 24.227 0 0 1-2.088-.165 3.4 3.4 0 0 1-.756-.137c0-.065 1.094 0 2.88.043a42.313 42.313 0 0 0 13.485-2.074c1.642-.54 2.657-.95 2.679-.892zM120.031 149.897s-.101.072-.309.18l-.922.403c-.792.374-1.966.864-3.434 1.44-1.469.576-3.247 1.13-5.249 1.678a61.95 61.95 0 0 1-13.32 2.066 66.685 66.685 0 0 1-5.508 0c-1.57-.072-2.83-.187-3.7-.31l-1.002-.136a1.36 1.36 0 0 1-.345-.072c.117-.019.236-.019.352 0l1.009.064c.87.072 2.16.144 3.693.188 1.534.043 3.427 0 5.486-.072 2.06-.072 4.321-.332 6.675-.72a81.59 81.59 0 0 0 6.574-1.361 56.537 56.537 0 0 0 5.241-1.599c1.469-.525 2.664-.964 3.47-1.296l.936-.367c.115-.041.233-.07.353-.086z" fill="#FAFAFA"/>
    <path d="m56.88 302.961-3.895 17.59-7.107 13.025a1.847 1.847 0 0 0 1.702 2.728c.293-.013.579-.097.833-.244 3.297-1.901 15.4-8.979 15.61-10.282.251-1.505 5.342-18.281 5.342-18.281l-12.485-4.536z" fill="#F2224F"/>
    <path d="m46.728 336.139 17.59-11.52-.188.72a2.782 2.782 0 0 1-1.065 1.599c-1.44 1.029-5.45 3.794-14.595 9.136a1.849 1.849 0 0 1-1.742.065zM62.107 318.074a1.115 1.115 0 0 0-.64 1.347 1.074 1.074 0 0 0 1.324.648 1.184 1.184 0 0 0 .677-1.44 1.113 1.113 0 0 0-1.44-.526" fill="#fff" opacity=".6"/>
    <path d="M52.603 329.472a5.749 5.749 0 0 0-1.202-1.735 5.58 5.58 0 0 0-1.923-.857c0-.051.252-.13.677-.087a2.887 2.887 0 0 1 1.498.663c.428.347.743.813.907 1.339.122.41.087.677.043.677zM50.781 331.51c-.1.057-.525-.648-1.368-1.131a13.614 13.614 0 0 0-1.656-.641 2.062 2.062 0 0 1 1.858.296c.957.554 1.267 1.454 1.166 1.476zM55.656 327.038a17.608 17.608 0 0 0-1.987-1.886 17.936 17.936 0 0 0-2.448-1.246 4.114 4.114 0 0 1 2.678.922 4.032 4.032 0 0 1 1.757 2.21zM57.29 321.789c-.072.094-.943-.547-2.16-.9-1.217-.352-2.318-.295-2.325-.417a4.588 4.588 0 0 1 4.514 1.317h-.029zM58.565 316.656a9.12 9.12 0 0 0-2.254-1.001 9.146 9.146 0 0 0-2.462 0c0-.043.223-.216.684-.353a4.032 4.032 0 0 1 3.542.72c.367.346.518.605.49.634zM56.578 314.683c0-.228.05-.454.144-.662a4.606 4.606 0 0 1 .95-1.606 2.118 2.118 0 0 1 1.109-.763.761.761 0 0 1 .778.36c.132.268.16.576.079.864a2.613 2.613 0 0 1-2.794 1.8 3.04 3.04 0 0 1-2.513-2.246 1.082 1.082 0 0 1 .166-.864.716.716 0 0 1 .828-.195c.407.203.754.508 1.008.886a5.31 5.31 0 0 1 .857 1.663c.087.215.129.445.122.677a8.26 8.26 0 0 0-1.202-2.16 2.426 2.426 0 0 0-.893-.72.388.388 0 0 0-.454.108.721.721 0 0 0-.072.569 2.717 2.717 0 0 0 2.189 1.886 2.267 2.267 0 0 0 2.398-1.49.9.9 0 0 0 0-.605.401.401 0 0 0-.425-.202c-.375.103-.71.319-.958.619a7.42 7.42 0 0 0-1.317 2.081z" fill="#263238"/>
    <path d="m56.405 304.869-.843 4.032 12.737 2.117 1.066-3.521-12.506-4.536-.454 1.908z" fill="#000" opacity=".3"/>
    <path d="m113.76 309.47-1.051 14.055s13.939 5.76 13.997 8.409l-27.36-1.058.72-21.975 13.694.569z" fill="#F2224F"/>
    <path d="M104.321 322.013a1.119 1.119 0 0 0-.821 1.245 1.075 1.075 0 0 0 1.224.828 1.178 1.178 0 0 0 .864-1.325 1.116 1.116 0 0 0-1.368-.72M99.36 330.876l.158-2.218 26.172 1.822s1.203.576 1.03 1.44l-27.36-1.044z" fill="#fff" opacity=".6"/>
    <path d="M113.169 323.402c0 .137-.676.173-1.346.576-.67.404-1.044.951-1.166.893-.123-.057.108-.821.928-1.296.821-.475 1.62-.295 1.584-.173zM115.992 324.72c0 .137-.561.338-1.037.886-.475.547-.626 1.137-.763 1.13-.137-.007-.187-.77.418-1.44.605-.67 1.382-.72 1.382-.576zM117.49 328.197c-.123 0-.281-.655.086-1.368.367-.712 1.008-.986 1.058-.871.051.116-.345.49-.64 1.08-.296.591-.375 1.152-.504 1.159zM113.04 320.177c-.058.115-.662-.094-1.44-.072-.778.021-1.354.237-1.44.122-.086-.115.518-.569 1.44-.583.922-.015 1.526.432 1.44.533z" fill="#263238"/>
    <path d="m113.565 312.257-.187 2.505-13.428-.648.094-2.894 13.521 1.037z" fill="#000" opacity=".3"/>
    <path d="M113.22 317.333a2.487 2.487 0 0 1-1.368-.058 6.02 6.02 0 0 1-1.44-.497 6.568 6.568 0 0 1-.771-.446 1.767 1.767 0 0 1-.403-.339.59.59 0 0 1 0-.72.71.71 0 0 1 .265-.212.709.709 0 0 1 .333-.068c.173.007.345.036.511.086.288.084.568.195.835.331.455.222.871.517 1.231.871.612.612.807 1.124.764 1.145-.044.022-.353-.389-.98-.9a5.78 5.78 0 0 0-1.195-.72 7.61 7.61 0 0 0-.777-.273c-.288-.087-.533-.094-.612 0-.08.093 0 .072 0 .158.086.095.185.178.295.245.231.161.471.307.72.439a7.33 7.33 0 0 0 1.303.562c.438.101.869.233 1.289.396z" fill="#263238"/>
    <path d="M113.04 317.52a2.27 2.27 0 0 1-.309-1.339c.002-.507.085-1.01.244-1.491.104-.281.231-.554.382-.813a1.145 1.145 0 0 1 .9-.663.647.647 0 0 1 .562.411c.062.161.101.331.115.504.047.305.047.616 0 .921a3.17 3.17 0 0 1-.641 1.39c-.562.72-1.123.828-1.138.785-.014-.043.432-.31.872-.979.252-.382.416-.815.482-1.268a2.917 2.917 0 0 0 0-.792c-.036-.288-.137-.532-.245-.504-.108.029-.374.202-.497.432-.14.231-.263.471-.367.72-.167.435-.273.89-.317 1.354-.093.806.029 1.332-.043 1.332zM85.478 157.896s-4.32.194-7.2 14.969c-2.88 14.774-24.833 134.488-24.833 134.488l15.92.144L99.36 193.68l-1.995 117.36 16.172 1.238s12.132-129.809 12.24-137.361c.144-9.418-5.264-18.944-5.264-18.944l-35.035 1.923z" fill="#263238"/>
    <path d="M107.359 156.636c.101 0-1.555 8.46-3.694 18.849-2.138 10.39-3.952 18.8-4.053 18.778-.101-.022 1.548-8.46 3.686-18.85 2.139-10.389 3.982-18.799 4.061-18.777zM109.836 158.745c0-.043.432-.172.929.267a1.326 1.326 0 0 1 .432 1.015 1.274 1.274 0 0 1-.814 1.094 1.286 1.286 0 0 1-1.354-.18 1.34 1.34 0 0 1-.424-1.022c0-.662.446-.893.453-.85a2.063 2.063 0 0 0-.187.843 1.1 1.1 0 0 0 .382.763 1.024 1.024 0 0 0 1.388-.205c.108-.135.18-.295.21-.465a1.083 1.083 0 0 0-.274-.806c-.352-.41-.748-.396-.741-.454zM109.152 164.592c0-.043.446 0 .72.598a1.26 1.26 0 0 1-.05 1.065 1.268 1.268 0 0 1-2.232-.18 1.246 1.246 0 0 1 .122-1.051c.338-.54.799-.526.785-.482-.015.043-.346.144-.555.604a1.073 1.073 0 0 0 0 .807.959.959 0 0 0 1.613.129c.136-.246.169-.535.094-.806-.209-.49-.533-.634-.497-.684zM93.895 158.889c-.03.248-.092.49-.187.72a11.96 11.96 0 0 1-.842 1.908 13.99 13.99 0 0 1-11.074 7.294c-.692.06-1.389.06-2.08 0a2.88 2.88 0 0 1-.72-.115c0-.072 1.086.05 2.807-.166a14.602 14.602 0 0 0 10.872-7.164c.843-1.454 1.16-2.498 1.224-2.477zM124.87 169.394s-.188-.086-.483-.288a8.644 8.644 0 0 1-1.152-.993 12.25 12.25 0 0 1-3.521-9.137 7.943 7.943 0 0 1 .195-1.505c.079-.353.129-.54.158-.533.029.007-.086.785-.086 2.045a13.348 13.348 0 0 0 3.449 8.95c.842.928 1.476 1.404 1.44 1.461z" fill="#455A64"/>
    <path d="M180.72 169.812c.237-.576.173-.346-3.643-2.88 0 0 5.472 3.6 4.903 1.886a6.983 6.983 0 0 0-1.779-1.649c1.44.85 2.276.944 2.528.598.432-.598-2.7-2.88-4.191-3.91a35.898 35.898 0 0 0 4.277 2.628c.886.274.461-.763-.137-1.519-.597-.756-5.234-5.22-6.48-6.552a1.077 1.077 0 0 1 0-1.641c2.232-1.44 3.211-3.737 3.183-4.493a.816.816 0 0 0-1.167-.612.819.819 0 0 0-.36.353c-.563.7-1.22 1.32-1.951 1.843a6.398 6.398 0 0 1-1.886 1.015c-.792.259-4.688.043-5.523-.382l-2.657 9.008s9.641 4.507 11.47 5.385c2.246 1.066 3.247 1.361 3.413.922z" fill="#FFBE9D"/>
    <path d="M175.341 165.6c-.079.108 1.174 1.022 2.794 2.052 1.62 1.029 2.981 1.771 3.046 1.663.064-.108-1.188-1.03-2.801-2.052-1.613-1.022-2.967-1.8-3.039-1.663zM176.249 163.836c-.072.108 1.21 1.159 2.88 2.354 1.67 1.196 3.053 2.081 3.125 1.98.072-.1-1.203-1.159-2.88-2.354-1.678-1.195-3.046-2.081-3.125-1.98zM177.206 162.05c-.072.101 1.123 1.124 2.671 2.276 1.548 1.152 2.88 2.001 2.938 1.9.058-.1-1.116-1.123-2.664-2.275s-2.866-2.001-2.945-1.901z" fill="#EB996E"/>
    <path d="m79.15 129.427 7.07.389c.501 1.974 1.17 3.901 2.002 5.76 5.695-9.879 10.08-23.119 11.203-28.44a43.619 43.619 0 0 0-.583-1.771 7.522 7.522 0 0 1 .086-2.996c.195-1.18.526-2.779.62-3.513.309-2.247.669-2.607 1.439-2.347 1.066.345-.439 6.314.432 6.444.476.064 1.044-1.98 1.217-3.658.173-1.678.922-6.833 1.476-7.2.814-.504 1.519.295 1.318 1.966-.202 1.67-.468 6.732.417 6.796.886.065 1.606-8.488 1.606-8.488s-.137-1.858.886-1.815c1.85.08.41 9.101.252 9.958-.116.59.849.72.936.057.086-.662.532-8.56 2.412-8.496 1.44.05-1.116 7.43-.303 9.144.814 1.714 1.375-5.81 2.758-5.71.511.044.893.145-.051 4.4a96.89 96.89 0 0 1-3.304 9.979c-2.16 11.808-11.801 49.579-26.864 42.667-8.424-3.866-12.362-23.04-12.362-23.04l7.337-.086z" fill="#FFBE9D"/>
    <path d="M111.053 109.951a.979.979 0 0 1 .072-.259c.064-.187.144-.432.252-.72.237-.684.561-1.635.986-2.88a85.867 85.867 0 0 0 1.44-4.543c.259-.886.475-1.85.67-2.88.1-.519.194-1.052.259-1.599.018-.27.018-.542 0-.813 0-.281-.065-.512-.288-.519-.223-.007-.382.13-.54.367a4.415 4.415 0 0 0-.353.8c-.202.568-.36 1.173-.518 1.785-.159.612-.303 1.253-.49 1.901a2.969 2.969 0 0 1-.432.994.398.398 0 0 1-.194.122.32.32 0 0 1-.274-.065.937.937 0 0 1-.202-.266 2.058 2.058 0 0 1-.151-.555 17.776 17.776 0 0 1 .432-4.32c.123-.72.252-1.44.346-2.16.043-.367.086-.72.093-1.108.008-.39-.05-.8-.201-.864-.151-.065-.519.136-.72.439-.199.32-.357.663-.468 1.022a14.942 14.942 0 0 0-.555 2.304 43.641 43.641 0 0 0-.338 2.42c-.036.41-.079.82-.115 1.238l-.058.626a.905.905 0 0 1-.288.72.72.72 0 0 1-.849 0 .587.587 0 0 1-.26-.41.813.813 0 0 1 0-.231v-.151l.195-1.26c.122-.85.223-1.699.302-2.563a35.35 35.35 0 0 0 .159-2.606 8.647 8.647 0 0 0-.26-2.564.852.852 0 0 0-.36-.518.432.432 0 0 0-.482.158 2.356 2.356 0 0 0-.274 1.397 90.37 90.37 0 0 1-.583 4.99 25.03 25.03 0 0 1-.461 2.426c-.057.195-.115.396-.187.598a1.208 1.208 0 0 1-.41.619.433.433 0 0 1-.526-.115.866.866 0 0 1-.194-.324 2.962 2.962 0 0 1-.166-.62 24.051 24.051 0 0 1-.043-4.715c.106-.732.147-1.472.122-2.21a1.22 1.22 0 0 0-.403-.822.48.48 0 0 0-.374-.057 1.126 1.126 0 0 0-.195.086c-.064.058-.057 0-.1.123a9.806 9.806 0 0 0-.569 2.008c-.144.72-.267 1.376-.375 2.052-.108.677-.208 1.34-.295 2.002-.086.662-.129 1.31-.259 1.958a10.766 10.766 0 0 1-.504 1.858 3.481 3.481 0 0 1-.209.446c-.101.137-.158.31-.432.396a.358.358 0 0 1-.367-.158 1.082 1.082 0 0 1-.115-.266 2.827 2.827 0 0 1-.058-.476c0-1.231.166-2.354.231-3.441a8.674 8.674 0 0 0 0-1.563c0-.23-.108-.504-.238-.554a.665.665 0 0 0-.583 0c-.302.325-.49.74-.533 1.18-.108.44-.151.886-.23 1.311-.303 1.699-.62 3.168-.77 4.363a5.916 5.916 0 0 0 0 1.584c.1.432.251.821.33 1.124.08.302.159.518.21.72.026.077.045.156.057.237a.934.934 0 0 1-.101-.223l-.245-.72c-.1-.31-.252-.655-.374-1.13a5.766 5.766 0 0 1 0-1.628c.137-1.216.425-2.671.72-4.377.079-.425.122-.871.216-1.332.051-.244.116-.484.194-.72.072-.262.23-.493.447-.655a.902.902 0 0 1 .849 0 .967.967 0 0 1 .454.835c.05.541.05 1.086 0 1.627-.051 1.094-.223 2.239-.195 3.406.006.138.023.275.051.41 0 .137.101.194.086.166-.014-.029.137-.116.195-.231.071-.128.133-.26.187-.396.213-.583.37-1.186.468-1.8.122-.626.165-1.274.252-1.944.086-.67.173-1.332.281-2.016.108-.684.23-1.368.367-2.066.117-.73.32-1.442.605-2.124a.712.712 0 0 1 .252-.281c.095-.052.197-.093.302-.122a.88.88 0 0 1 .72.108 1.55 1.55 0 0 1 .583 1.094c.054.392.054.79 0 1.18-.036.368-.072.72-.093 1.124a22.891 22.891 0 0 0 .043 4.608c.031.182.079.36.144.533a.483.483 0 0 0 .108.187h.036v.065-.058c.09-.12.16-.254.209-.396.067-.177.124-.365.172-.561.195-.764.324-1.57.447-2.376.245-1.62.425-3.284.576-4.968v.036a2.782 2.782 0 0 1 .367-1.707.899.899 0 0 1 1.001-.295 1.297 1.297 0 0 1 .619.792c.231.885.325 1.8.281 2.714 0 .893-.079 1.772-.159 2.643a49.637 49.637 0 0 1-.309 2.577c-.065.432-.13.85-.195 1.275-.057.266-.043.273 0 .353a.309.309 0 0 0 .339 0c.086-.065.101-.188.122-.425l.051-.627.129-1.245c.087-.821.202-1.642.339-2.441.133-.803.325-1.595.576-2.369.13-.391.307-.766.525-1.116.119-.189.276-.35.461-.475a.795.795 0 0 1 .72-.108.848.848 0 0 1 .396.634c.03.202.042.407.036.612 0 .396-.05.777-.094 1.159-.1.72-.237 1.483-.367 2.21a18.154 18.154 0 0 0-.446 4.169c.02.151.059.298.115.439.026.051.057.1.094.144v-.05c.161-.26.28-.545.352-.843.188-.626.339-1.26.504-1.879.149-.616.329-1.224.54-1.821.1-.296.23-.581.389-.85.086-.147.198-.276.331-.382a.602.602 0 0 1 .252-.13.907.907 0 0 1 .281 0 .557.557 0 0 1 .454.332c.06.151.092.312.093.475a5.64 5.64 0 0 1-.05.871c-.065.562-.173 1.095-.274 1.62-.208 1.03-.439 2.009-.72 2.88-.54 1.786-1.08 3.298-1.519 4.529-.439 1.231-.813 2.16-1.065 2.823-.123.302-.224.54-.296.72a1.594 1.594 0 0 1-.136.338z" fill="#EB996E"/>
    <path d="M71.748 130.241c1.368 4.831 4.046 12.283 6.92 20.16a1.36 1.36 0 0 0 2.512.122l7.042-14.897s-1.7-12.24-1.556-11.8c.144.439-14.53 1.584-14.53 1.584l-.388 4.831z" fill="#F2224F"/>
    <path d="M87.617 127.843c0 .058-.879.317-2.268.85a32.026 32.026 0 0 0-5.227 2.548 32.815 32.815 0 0 0-4.68 3.456c-1.116.987-1.757 1.664-1.8 1.62-.044-.043.122-.201.396-.525.385-.45.794-.881 1.224-1.289a26.973 26.973 0 0 1 4.665-3.6 27.471 27.471 0 0 1 5.328-2.477 16.699 16.699 0 0 1 1.714-.489c.21-.066.428-.098.648-.094z" fill="#FAFAFA"/>
    <path d="M90.41 131.558a7.626 7.626 0 0 1-1.18-1.541 25.97 25.97 0 0 1-3.55-8.596 7.366 7.366 0 0 1-.252-1.916c.215.604.385 1.222.51 1.851a36.05 36.05 0 0 0 1.44 4.385 36.924 36.924 0 0 0 2.06 4.14c.36.537.684 1.098.972 1.677zM95.105 65.592a15.84 15.84 0 0 0-1.375 13.543c.72 1.98 1.872 3.931 1.663 6.034-.209 2.102-1.85 4.183-1.274 6.256.345 1.232 1.396 2.16 1.807 3.356.468 1.44 0 2.959-.252 4.435-.576 3.773.633 7.567.929 11.369.295 3.801-.72 8.258-4.119 9.914-1.03.504-2.376.648-3.233-.122-1.094-.972-.792-2.729-.49-4.169 2.982-14.4-6.227-28.455-4.125-43.027.339-2.333 1.642-6.293 3.32-7.92 1.677-1.628 6.335-1.44 7.92.288" fill="#263238"/>
    <path d="M80.92 107.366s.44-.518 1.088-1.541a13.949 13.949 0 0 0 1.88-4.716c.216-1.152.291-2.328.222-3.499a37.08 37.08 0 0 1-.15-4.097c.042-.748.18-1.489.41-2.203.263-.735.596-1.444.993-2.117.807-1.36 1.822-2.627 2.758-3.981a10.93 10.93 0 0 0 1.958-4.32c.16-1.475.075-2.966-.252-4.414a16.784 16.784 0 0 1-.317-4.09 13.76 13.76 0 0 1 .72-3.513 13.355 13.355 0 0 1 2.55-4.486c.3-.357.628-.692.978-1a1.93 1.93 0 0 1 .375-.31s-.483.468-1.246 1.44a13.824 13.824 0 0 0-3.038 7.92c-.048 1.349.07 2.698.353 4.018.343 1.486.436 3.019.273 4.536a11.326 11.326 0 0 1-2.016 4.442c-.943 1.375-1.958 2.635-2.75 3.96-.39.648-.713 1.333-.965 2.045a8.344 8.344 0 0 0-.41 2.117 39.026 39.026 0 0 0 .115 4.053 14.394 14.394 0 0 1-.274 3.564 13.487 13.487 0 0 1-2.016 4.745 10.44 10.44 0 0 1-.864 1.109c-.112.126-.237.24-.374.338z" fill="#455A64"/>
    <path d="M74.095 108.439a2.61 2.61 0 0 1 .223-.482c.18-.339.41-.785.72-1.347.605-1.173 1.505-2.88 2.39-5.04A21.965 21.965 0 0 0 79.2 93.6c0-.79-.06-1.58-.18-2.362-.122-.806-.31-1.62-.432-2.47a6.999 6.999 0 0 1 .058-2.649 4.738 4.738 0 0 1 1.44-2.311c1.353-1.231 2.988-2.038 3.837-3.485a11.787 11.787 0 0 0 1.275-4.615c.152-1.476.486-2.927.993-4.32a15.617 15.617 0 0 1 5.825-7.359c.422-.284.863-.541 1.318-.77a2.16 2.16 0 0 1 .49-.216s-.649.346-1.722 1.109a15.731 15.731 0 0 0-3.866 3.953 15.302 15.302 0 0 0-1.757 3.39 18.32 18.32 0 0 0-.936 4.32c-.216 1.534-.389 3.248-1.31 4.767-.922 1.52-2.607 2.383-3.895 3.6a4.406 4.406 0 0 0-1.361 2.16 6.668 6.668 0 0 0-.05 2.506c.115.828.295 1.649.417 2.462.125.8.182 1.61.173 2.42a21.856 21.856 0 0 1-1.865 8.099 48.133 48.133 0 0 1-2.506 5.04L74.383 108c-.08.156-.176.303-.288.439z" fill="#455A64"/>
    <path d="M312.314 311.89c.034-.105.077-.206.13-.303.101-.216.238-.504.403-.871a21.36 21.36 0 0 0 1.203-3.485c.792-3.096 1.072-7.826-.101-13.442a72.647 72.647 0 0 0-2.499-9.036c-1.051-3.204-2.282-6.603-3.283-10.282a39.87 39.87 0 0 1-1.62-11.822c.151-4.183 1.39-8.352 2.751-12.514 1.36-4.161 2.764-8.215 3.182-12.319a18.799 18.799 0 0 0-2.261-11.376c-1.8-3.319-4.068-6.163-5.76-9.101a31.672 31.672 0 0 1-3.463-8.755 32.622 32.622 0 0 1-.223-13.55 24.89 24.89 0 0 1 1.44-4.788c-.02.108-.048.214-.087.316l-.288.915a37.166 37.166 0 0 0-.878 3.6 33.11 33.11 0 0 0 .353 13.457 31.333 31.333 0 0 0 3.477 8.64c1.692 2.88 3.968 5.76 5.811 9.093a19.176 19.176 0 0 1 2.325 11.614c-.424 4.161-1.836 8.258-3.196 12.413-1.361 4.154-2.585 8.28-2.736 12.391a39.29 39.29 0 0 0 1.584 11.707c.986 3.658 2.196 7.056 3.24 10.274a70.957 70.957 0 0 1 2.448 9.087c1.144 5.659.82 10.44 0 13.543a20.116 20.116 0 0 1-1.289 3.478l-.447.856a1.415 1.415 0 0 1-.216.26z" fill="#263238"/>
    <path d="M306.763 220.241s-3.441-11.023 2.736-17.475a.382.382 0 0 1 .656.188c.331 1.821.741 7.365-3.392 17.287z" fill="#F2224F"/>
    <path d="M308.83 206.438a10.509 10.509 0 0 1-.231 2.031 981.76 981.76 0 0 0-.784 4.86c-.288 1.814-.555 3.463-.778 4.86a12.1 12.1 0 0 1-.36 2.016 8.532 8.532 0 0 1 .043-2.045c.115-1.26.339-2.988.648-4.889.31-1.901.648-3.6.915-4.845a8.908 8.908 0 0 1 .547-1.988z" fill="#263238"/>
    <path d="M310.81 246.24s2.109-11.354 10.591-14.162a.378.378 0 0 1 .495.267.368.368 0 0 1-.006.208c-.561 1.749-2.786 6.84-11.08 13.687z" fill="#F2224F"/>
    <path d="M319.09 234.994a10.739 10.739 0 0 1-1.152 1.692l-2.974 3.924-2.952 3.938a11.557 11.557 0 0 1-1.26 1.606 8.516 8.516 0 0 1 1.008-1.786 82.843 82.843 0 0 1 2.88-4.018 141.653 141.653 0 0 1 3.067-3.859 9.3 9.3 0 0 1 1.383-1.497z" fill="#263238"/>
    <path d="M308.52 274.702s-1.281-11.477 6.019-16.625a.38.38 0 0 1 .402-.039.379.379 0 0 1 .203.348c-.021 1.851-.677 7.366-6.624 16.316z" fill="#F2224F"/>
    <path d="M313.2 261.547a9.586 9.586 0 0 1-.612 1.951l-1.699 4.623c-.633 1.728-1.202 3.29-1.685 4.622a11.703 11.703 0 0 1-.72 1.908 8.415 8.415 0 0 1 .447-2.001c.353-1.21.9-2.88 1.569-4.68.67-1.8 1.325-3.42 1.822-4.58.229-.642.524-1.26.878-1.843z" fill="#263238"/>
    <path d="M314.906 303.343s-.864-11.52 6.61-16.401a.378.378 0 0 1 .549.127.383.383 0 0 1 .049.204c-.087 1.85-.936 7.344-7.208 16.07z" fill="#F2224F"/>
    <path d="M320.033 290.369a9.991 9.991 0 0 1-.684 1.929c-.533 1.311-1.167 2.88-1.865 4.558s-1.31 3.24-1.843 4.558c-.214.65-.486 1.279-.814 1.879a8.645 8.645 0 0 1 .526-1.987 72.126 72.126 0 0 1 1.735-4.616c.734-1.778 1.44-3.376 1.98-4.514a9.59 9.59 0 0 1 .965-1.807z" fill="#263238"/>
    <path d="M301.81 210.557s-10.21-5.357-10.433-14.278a.385.385 0 0 1 .2-.343.391.391 0 0 1 .398.012c1.519 1.051 5.738 4.68 9.835 14.609z" fill="#F2224F"/>
    <path d="M293.501 199.346c.479.49.906 1.028 1.274 1.606.836 1.145 1.808 2.498 2.88 3.989l2.88 3.974c.439.523.83 1.085 1.167 1.678a8.441 8.441 0 0 1-1.404-1.491c-.814-.964-1.879-2.347-3.003-3.909a97.074 97.074 0 0 1-2.786-4.068 9.78 9.78 0 0 1-1.008-1.779z" fill="#263238"/>
    <path d="M312.804 234.223s-10.541-4.716-11.282-13.622a.376.376 0 0 1 .178-.356.378.378 0 0 1 .398-.004c1.577.957 6.005 4.313 10.706 13.982z" fill="#F2224F"/>
    <path d="M303.84 223.538c.508.457.967.967 1.368 1.52l3.125 3.808 3.132 3.795c.469.496.893 1.034 1.267 1.605a8.734 8.734 0 0 1-1.497-1.404 75.23 75.23 0 0 1-3.233-3.722 103.545 103.545 0 0 1-3.031-3.895 9.292 9.292 0 0 1-1.131-1.707z" fill="#263238"/>
    <path d="M306.72 260.64s-7.2-9-3.837-17.28a.376.376 0 0 1 .321-.236.385.385 0 0 1 .356.178c1 1.563 3.398 6.574 3.16 17.338z" fill="#F2224F"/>
    <path d="M303.61 247.018c.246.639.425 1.303.533 1.98a2196.4 2196.4 0 0 1 1.044 4.809c.389 1.8.756 3.42 1.058 4.803.193.656.325 1.328.396 2.008a8.637 8.637 0 0 1-.72-1.929 67.445 67.445 0 0 1-1.188-4.795c-.403-1.916-.72-3.6-.921-4.839a9.3 9.3 0 0 1-.202-2.037z" fill="#263238"/>
    <path d="M313.92 291.679s-10.462-4.889-11.052-13.802a.38.38 0 0 1 .382-.419c.071 0 .141.021.201.059 1.548.986 5.919 4.421 10.469 14.162z" fill="#F2224F"/>
    <path d="M305.115 280.843c.494.472.943.991 1.339 1.548l3.06 3.852 3.067 3.852c.461.504.876 1.049 1.239 1.627a8.386 8.386 0 0 1-1.44-1.44c-.857-.936-1.98-2.268-3.176-3.78a102.77 102.77 0 0 1-2.966-3.945 8.79 8.79 0 0 1-1.123-1.714zM334.735 246.291v.972c0 .72-.072 1.634-.122 2.8-.13 2.463-.324 5.897-.547 10.001-.72 4.176-2.88 8.806-5.76 13.306-2.096 3.312-4.32 6.321-6.192 9.122a64.247 64.247 0 0 0-4.594 7.704 32.342 32.342 0 0 0-2.16 5.631c-.18.684-.324 1.224-.403 1.591a3.391 3.391 0 0 1-.151.561c.002-.194.026-.387.072-.576.05-.374.158-.921.324-1.62a29.4 29.4 0 0 1 2.052-5.724 61.842 61.842 0 0 1 4.586-7.754c1.886-2.822 4.068-5.839 6.156-9.13 2.844-4.478 4.961-9.036 5.76-13.147.288-4.097.526-7.524.72-9.986.094-1.167.173-2.095.23-2.794 0-.288.051-.533.072-.72a.96.96 0 0 1-.043-.237z" fill="#263238"/>
    <path d="M328.507 272.542s4.428-10.656-1.137-17.647a.373.373 0 0 0-.167-.124.38.38 0 0 0-.503.253c-.497 1.786-1.411 7.265 1.807 17.518z" fill="#F2224F"/>
    <path d="M327.701 258.617c.191.657.309 1.333.353 2.016.158 1.252.331 2.988.468 4.91a73.06 73.06 0 0 1 .202 4.932 8.345 8.345 0 0 1-.123 2.045 10.877 10.877 0 0 1-.18-2.038c-.093-1.44-.209-3.074-.331-4.91-.122-1.836-.238-3.499-.338-4.911a10.422 10.422 0 0 1-.051-2.044z" fill="#263238"/>
    <path d="M328.507 272.542s4.428-10.656-1.137-17.647a.373.373 0 0 0-.167-.124.38.38 0 0 0-.503.253c-.497 1.786-1.411 7.265 1.807 17.518z" fill="#000" opacity=".3"/>
    <path d="M314.791 298.238s3.55-10.987-2.57-17.496a.383.383 0 0 0-.655.18c-.346 1.815-.814 7.359 3.225 17.316z" fill="#F2224F"/>
    <path d="M312.854 284.4c.25.64.424 1.307.519 1.987.259 1.231.569 2.952.864 4.853a75.09 75.09 0 0 1 .605 4.896c.093.68.105 1.369.036 2.052a12.298 12.298 0 0 1-.346-2.016c-.209-1.404-.453-3.046-.72-4.867-.266-1.822-.525-3.464-.72-4.868a10.491 10.491 0 0 1-.238-2.037z" fill="#263238"/>
    <path d="M314.791 298.238s3.55-10.987-2.57-17.496a.383.383 0 0 0-.655.18c-.346 1.815-.814 7.359 3.225 17.316z" fill="#000" opacity=".3"/>
    <path d="M334.152 259.517s9.454-6.624 8.504-15.509a.385.385 0 0 0-.448-.336.383.383 0 0 0-.186.091c-1.375 1.239-5.062 5.357-7.87 15.754z" fill="#F2224F"/>
    <path d="M334.152 259.517s9.454-6.624 8.504-15.509a.385.385 0 0 0-.448-.336.383.383 0 0 0-.186.091c-1.375 1.239-5.062 5.357-7.87 15.754z" fill="#000" opacity=".3"/>
    <path d="M340.942 247.327a8.885 8.885 0 0 1-.785 1.894 102.854 102.854 0 0 1-2.239 4.392c-.915 1.699-1.793 3.204-2.47 4.269a8.521 8.521 0 0 1-1.202 1.656c.253-.633.566-1.241.936-1.814.676-1.246 1.476-2.7 2.354-4.32l2.347-4.32c.295-.619.649-1.207 1.059-1.757z" fill="#263238"/>
    <path d="M318.607 287.345s11.405-1.779 14.458-10.174a.377.377 0 0 0-.073-.39.381.381 0 0 0-.381-.114c-1.778.533-6.933 2.585-14.004 10.678z" fill="#F2224F"/>
    <path d="M318.607 287.345s11.405-1.779 14.458-10.174a.377.377 0 0 0-.073-.39.381.381 0 0 0-.381-.114c-1.778.533-6.933 2.585-14.004 10.678z" fill="#000" opacity=".3"/>
    <path d="M330.07 279.396a9.23 9.23 0 0 1-1.541 1.346 97.557 97.557 0 0 1-3.938 2.967 70.019 70.019 0 0 1-4.104 2.743 8.357 8.357 0 0 1-1.815.958 11.082 11.082 0 0 1 1.649-1.217l4.018-2.837 4.01-2.88a9.6 9.6 0 0 1 1.721-1.08z" fill="#263238"/>
    <path d="m307.721 308.34-3.326 22.392h20.736l-2.686-22.392h-14.724z" fill="#455A64"/>
    <path d="M323.28 315.274c0 .122-3.744.216-8.359.216s-8.366-.094-8.366-.216a82.223 82.223 0 0 1 8.366-.216c2.788-.07 5.578.002 8.359.216zM323.683 317.059c0 .123-3.866.216-8.64.216-4.773 0-8.64-.093-8.64-.216 0-.122 3.867-.216 8.64-.216 4.774 0 8.64.094 8.64.216zM243.05 91.109h-.568a13.839 13.839 0 0 0-1.642 0 18.45 18.45 0 0 0-6.142 1.44 18.852 18.852 0 0 0-7.79 6.07 17.017 17.017 0 0 0-2.722 5.565 18.721 18.721 0 0 0 1.894 14.141 16.02 16.02 0 0 0 2.448 3.254 13.324 13.324 0 0 0 3.312 2.592 8.128 8.128 0 0 0 4.154 1.044 5.97 5.97 0 0 0 4.025-1.627 5.795 5.795 0 0 0 1.215-1.914c.276-.711.409-1.47.391-2.233a7.648 7.648 0 0 0-1.44-4.414c-1.865-2.628-4.889-4.392-8.107-5.342a19.91 19.91 0 0 0-10.224-.144 21.393 21.393 0 0 0-4.925 1.958 17.796 17.796 0 0 0-4.227 3.319c-.295.339-.633.648-.9 1.023l-.813 1.094a20.445 20.445 0 0 0-1.325 2.405 19.513 19.513 0 0 0-1.562 5.306 20.107 20.107 0 0 0 1.44 10.8 16.673 16.673 0 0 0 6.948 7.92 11.51 11.51 0 0 0 4.924 1.491 8.696 8.696 0 0 0 4.86-1.167 7.6 7.6 0 0 0 3.284-3.6 6.523 6.523 0 0 0 .122-4.73 9.531 9.531 0 0 0-2.707-3.83 12.393 12.393 0 0 0-3.982-2.312 15.433 15.433 0 0 0-8.769-.151 17.067 17.067 0 0 0-7.2 4.011 16.427 16.427 0 0 0-4.126 6.386 18.504 18.504 0 0 0 .194 12.96 19.654 19.654 0 0 0 5.926 7.92 21.3 21.3 0 0 0 5.45 3.175c.677.252 1.203.439 1.563.54l.533.173s-.188-.036-.548-.137a15.441 15.441 0 0 1-1.569-.511 20.387 20.387 0 0 1-5.515-3.125 19.733 19.733 0 0 1-6.041-7.956 18.723 18.723 0 0 1-.238-13.097 16.517 16.517 0 0 1 4.169-6.48 17.426 17.426 0 0 1 7.308-4.104 15.767 15.767 0 0 1 8.957.144 12.613 12.613 0 0 1 4.097 2.369 9.79 9.79 0 0 1 2.808 3.967 6.901 6.901 0 0 1-.072 4.961 8.066 8.066 0 0 1-3.435 3.751 9.08 9.08 0 0 1-5.04 1.224 11.695 11.695 0 0 1-5.04-1.54 17.026 17.026 0 0 1-7.121-8.057 20.527 20.527 0 0 1-1.483-11.002 20.036 20.036 0 0 1 1.599-5.414c.395-.848.847-1.668 1.353-2.455l.835-1.116c.267-.382.612-.72.915-1.052a18.244 18.244 0 0 1 4.32-3.384 21.686 21.686 0 0 1 5.04-1.987 20.275 20.275 0 0 1 10.418.151c3.283.98 6.358 2.772 8.295 5.494a7.925 7.925 0 0 1 1.512 4.608 6.15 6.15 0 0 1-1.707 4.385 6.301 6.301 0 0 1-4.248 1.706 8.366 8.366 0 0 1-4.32-1.087 13.394 13.394 0 0 1-3.384-2.657 16.565 16.565 0 0 1-2.484-3.319 18.987 18.987 0 0 1-1.901-14.4 17.224 17.224 0 0 1 2.787-5.623c2.048-2.7 4.783-4.8 7.92-6.084a17.996 17.996 0 0 1 6.185-1.354 12.57 12.57 0 0 1 1.656 0l.46.058z" fill="#263238"/>
    <path d="M267.091 163.152H166.14v77.861h100.951v-77.861z" fill="#F2224F"/>
    <path d="m166.14 163.152 18.648 17.395h99.238l-16.935-17.395H166.14z" fill="#F2224F"/>
    <path d="m166.14 163.152 100.98-.18h.079l.058.05 16.762 17.216.172.18.31.316h-.446l-99.238-.079h-.043l-18.634-17.503 18.72 17.28h-.079l99.238-.072-.13.317-.18-.18-16.754-17.215.129.057-100.944-.187zM196.467 199.058a2.09 2.09 0 0 0-2.013 2.125 2.092 2.092 0 0 0 2.088 2.05 2.09 2.09 0 0 0 .076-4.175M220.32 199.058a2.077 2.077 0 0 0-2.001 2.119 2.08 2.08 0 1 0 2.159-2.119M220.457 217.692a14.919 14.919 0 0 0-2.002-4.471 13.135 13.135 0 0 0-3.816-3.658 11.642 11.642 0 0 0-12.333-.338 13.3 13.3 0 0 0-4.011 3.441 14.788 14.788 0 0 0-2.239 4.364c.006-.117.025-.233.058-.346.069-.324.158-.644.266-.958a11.543 11.543 0 0 1 1.707-3.218 13.09 13.09 0 0 1 4.053-3.6 11.846 11.846 0 0 1 12.687.346 13.064 13.064 0 0 1 3.844 3.801 11.533 11.533 0 0 1 1.534 3.312c.089.32.158.644.209.972.025.116.039.234.043.353z" fill="#263238"/>
    <path opacity=".5" d="m166.371 164.009 17.856 22.637h82.864v-6.099h-82.303l-18.417-16.538z" fill="#000"/>
    <path d="M247.183 240.84c-.1 0-.187-13.543-.187-30.24s.087-30.24.187-30.24c.101 0 .195 13.536.195 30.24s-.087 30.24-.195 30.24z" fill="#263238"/>
    <path d="M263.038 223.186h-8.899v10.058h8.899v-10.058z" fill="#F5F5F5"/>
    <path d="m166.14 163.152-20.722 17.395h20.722v-17.395z" fill="#F2224F"/>
    <path d="m166.14 163.152-20.722 17.395h20.722v-17.395z" fill="#000" opacity=".4"/>
    <path d="M270.072 241.013H154.001v89.524h116.071v-89.524z" fill="#F2224F"/>
    <path opacity=".3" d="M270.072 241.013H154.001v89.524h116.071v-89.524z" fill="#000"/>
    <path d="M240.991 329.904c-.1 0-.187-19.951-.187-44.561 0-24.609.087-44.568.187-44.568.101 0 .188 19.951.188 44.568 0 24.617-.087 44.561-.188 44.561z" fill="#263238"/>
    <path d="M260.23 310.162h-8.899v10.058h8.899v-10.058z" fill="#F5F5F5"/>
    <path d="M202.594 241.25h-13.183v19.102h13.183V241.25zM202.594 311.17h-13.183v19.101h13.183V311.17zM269.064 241.013h-1.173l-3.348.036-12.334.057-40.673.094-40.687-.05-12.326-.058-3.348-.036 3.348-.036 12.326-.058 40.687-.057 40.673.057 12.334.058 3.348.036h.871l.302-.043zM70.142 86.018 57.5 82.908h.094a20.987 20.987 0 0 1-10.908 3.276c-2.29.01-4.57-.322-6.76-.986A21.197 21.197 0 0 1 25.364 67.6a20.88 20.88 0 0 1 5.43-16.87 21.662 21.662 0 0 1 3.664-3.211c.677-.425 1.354-.864 2.06-1.231l1.072-.519.533-.259.562-.202a21.25 21.25 0 0 1 9.086-1.39A21.046 21.046 0 0 1 66.32 58.105a21.931 21.931 0 0 1 1.167 6.826 20.945 20.945 0 0 1-3.032 10.95v-.114c3.514 6.343 5.285 9.547 5.681 10.252-.41-.72-2.246-3.866-5.882-10.144v-.116a20.78 20.78 0 0 0 2.88-10.8 21.44 21.44 0 0 0-1.18-6.71 20.707 20.707 0 0 0-18.21-13.896 20.881 20.881 0 0 0-8.906 1.368l-.547.194-.526.26-1.051.504c-.72.367-1.354.791-2.023 1.21a21.396 21.396 0 0 0-3.6 3.124 20.513 20.513 0 0 0-5.335 16.56 20.83 20.83 0 0 0 7.797 13.846 20.498 20.498 0 0 0 6.48 3.456 22.433 22.433 0 0 0 6.646 1 20.792 20.792 0 0 0 10.8-3.16h.123l12.541 3.304z" fill="#263238"/>
    <path d="m44.64 55.656.64 10.584a1.714 1.714 0 0 0 1.606 1.606 1.721 1.721 0 0 0 1.808-1.527l1.173-10.605a1.347 1.347 0 0 0-1.36-1.49h-2.571a1.34 1.34 0 0 0-1.296 1.432zM49.68 73.757a2.578 2.578 0 1 1-4.891-1.63 2.578 2.578 0 0 1 4.891 1.63z" fill="#F2224F"/>
</svg>
