<svg width="715" height="412" viewBox="0 0 715 412" fill="none" xmlns="http://www.w3.org/2000/svg">
    <path d="M158.598 5s-16.555 6.228-16.997 9.646c0 0 3.642 12.4 19.467 21.233l-.759 5.801 2.566 8.268c2.194-12.401 3.242-30.838 3.242-30.838S162.792 7.425 158.598 5z" fill="#EBEBEB"/>
    <path d="M158.336 6.281s-1.117 17.1 5.919 26.967c.069 0 3.863-16.012-5.919-26.967z" fill="#E0E0E0"/>
    <path d="M190.91 17.484S178.424 4.972 175.168 5.951c0 0-9.865 8.447-11.368 26.47l-5.616 1.68s-6.981-11.904-24.212-14.302c0 0-3.739 18.037-4.139 17.982a31.92 31.92 0 0 0 21.757 2.067c12.279-3.142 29.483-9.728 29.483-9.728s9.354-7.813 9.837-12.636z" fill="#EBEBEB"/>
    <path d="M155.936 37.092s-14.914-3.349-24.917.51c0 0 14.942 6.297 24.917-.51zM189.64 17.718s-16.059 6.008-22.171 16.535c0 0 16.17-3.059 22.171-16.535z" fill="#E0E0E0"/>
    <path d="m218.213 18.545 16.473 68.441-103.929 31.293L109 51.436l109.213-32.891z" fill="#EBEBEB"/>
    <path d="m198.498 24.483 20.308 67.285 15.88-4.782-16.473-68.441-19.715 5.938z" fill="#E0E0E0"/>
    <path d="m210.404 20.901 17.66 68.07-3.601 1.088-20.309-67.27 6.25-1.888zM158.933 36.4l-8.665 2.61 20.31 67.269 8.665-2.61-20.31-67.269z" fill="#FAFAFA"/>
    <path d="m224.804 47.78-106.21 33.08 2.033 6.512 106.21-33.08-2.033-6.511z" fill="#FAFAFA"/>
    <path d="M511.113 71.548s-12.052-3.623-13.711-1.905c0 0-3.355 8.624 1.838 20.424l-2.955 2.953-2.138 5.79c6.635-6.109 15.18-16.054 15.18-16.054s3.133-8.081 1.786-11.208z" fill="#EBEBEB"/>
    <path d="M510.424 72.1s-8.034 9.184-8.252 17.82c-.068-.015 9.06-7.4 8.252-17.82z" fill="#E0E0E0"/>
    <path d="M524.017 92.507s-1.648-12.473-3.918-13.322c0 0-9.236.512-17.899 10.106l-3.914-1.458s1.205-9.756-7.466-18.538c0 0-9.939 8.601-10.095 8.411a22.66 22.66 0 0 0 11.41 10.569c8.298 3.529 20.885 7.23 20.885 7.23s8.637-.491 10.997-2.998z" fill="#EBEBEB"/>
    <path d="M495.734 88.49s-6.991-8.334-14.315-10.473c0 0 5.739 10.002 14.315 10.473zM523.17 92.12s-11.689-3.542-19.737-.264c.054.012 10.549 5.277 19.737.264z" fill="#E0E0E0"/>
    <path d="m539.004 104.896-20.31 45.832-72.353-27.171 16.632-47.208 76.031 28.547z" fill="#EBEBEB"/>
    <path d="m525.274 99.738-17.635 46.828 11.055 4.162 20.31-45.833-13.73-5.157z" fill="#E0E0E0"/>
    <path d="m533.566 102.856-19.473 46.133-2.516-.946 17.635-46.828 4.354 1.641zM491.729 87.148l-17.63 46.831 6.03 2.265 17.63-46.832-6.03-2.264z" fill="#FAFAFA"/>
    <path d="m530.066 124.267-74.41-27.146-1.667 4.556 74.411 27.146 1.666-4.556z" fill="#FAFAFA"/>
    <path d="m549.017 200.791 95.444-.73 2.083 129.952H539.442l9.575-129.222z" fill="#EBEBEB"/>
    <path d="M644.461 200.061h11.989l10.32 129.952h-20.226l-2.083-129.952z" fill="#E0E0E0"/>
    <path d="M624.235 251.224h-62.484v10.458h62.484v-10.458z" fill="#fff"/>
    <path d="M613.943 203.809c-.083 0-.165-1.144-.565-3.169a39.97 39.97 0 0 0-2.525-8.268 31.957 31.957 0 0 0-7.202-10.555 20.129 20.129 0 0 0-28.269-.096 31.526 31.526 0 0 0-7.257 10.527 39.628 39.628 0 0 0-2.566 8.268c-.4 2.025-.483 3.169-.566 3.169a3.03 3.03 0 0 1 0-.84c0-.552.097-1.378.249-2.37a36.747 36.747 0 0 1 2.359-8.475 31.384 31.384 0 0 1 7.271-10.844 20.703 20.703 0 0 1 14.644-5.996 20.704 20.704 0 0 1 14.604 6.093 31.675 31.675 0 0 1 7.229 10.871 36.343 36.343 0 0 1 2.318 8.488c.152 1.02.221 1.819.249 2.37.038.274.047.551.027.827z" fill="#E0E0E0"/>
    <path d="M622.428 203.809c-.083 0-.152-1.144-.552-3.169a39.335 39.335 0 0 0-2.538-8.268 31.548 31.548 0 0 0-7.202-10.555 20.129 20.129 0 0 0-28.269-.096 31.68 31.68 0 0 0-7.257 10.527 39.413 39.413 0 0 0-2.552 8.268c-.4 2.025-.497 3.169-.566 3.169a3.03 3.03 0 0 1 0-.84c.038-.794.121-1.586.248-2.37A35.394 35.394 0 0 1 576.1 192a31.367 31.367 0 0 1 7.27-10.844 20.703 20.703 0 0 1 14.644-5.996 20.706 20.706 0 0 1 14.605 6.093 31.375 31.375 0 0 1 7.215 10.871 35.78 35.78 0 0 1 2.332 8.488 24.51 24.51 0 0 1 .248 2.37c.04.274.045.552.014.827z" fill="#E0E0E0"/>
    <path d="M715 329.504c0 .206-156.712.358-349.979.358-193.266 0-350.021-.152-350.021-.358 0-.207 156.68-.358 350.021-.358s349.979.179 349.979.358zM635.907 292.478s-5.353-36.776-4.912-58.176c.442-21.399 0-45.471 0-45.471h2.456s-1.669 42.481.152 68.097c1.821 25.616 6.609 35.55 6.609 35.55h-4.305z" fill="#263238"/>
    <path d="M651.897 147.438a6.524 6.524 0 0 0-2.249-3.279c-1.572-.993-3.628-.579-5.367 0-7.463 2.645-14.072 16.535-17.08 23.824l9.892 33.318c17.867-16.507 20.971-38.237 14.804-53.863z" fill="#455A64"/>
    <path d="M649.069 145.523a2.11 2.11 0 0 1-.152.427l-.483 1.212a297.514 297.514 0 0 0-1.766 4.465 171.072 171.072 0 0 0-4.98 15.033c-1.67 5.953-2.76 11.451-3.491 15.447-.358 1.998-.62 3.61-.786 4.74l-.207 1.281a1.822 1.822 0 0 1-.11.455 2.163 2.163 0 0 1 0-.455c0-.344 0-.772.124-1.309.124-1.13.345-2.756.662-4.754a142.532 142.532 0 0 1 8.512-30.493c.773-1.888 1.38-3.404 1.904-4.423.221-.483.4-.882.552-1.185.152-.304.207-.455.221-.441z" fill="#263238"/>
    <path d="M632.692 209.335a30.227 30.227 0 0 1-10.945-10.671 30.16 30.16 0 0 1-4.313-14.656c-.359-7.399 1.917-14.647 4.497-21.592a2.76 2.76 0 0 1 1.049-1.571 2.664 2.664 0 0 1 2.525.4c6.746 3.831 10.83 11.147 13.01 18.588a37.543 37.543 0 0 1 1.531 15.281 25.39 25.39 0 0 1-7.354 14.221z" fill="#455A64"/>
    <path d="M632.692 209.335a1.628 1.628 0 0 1 0-.441v-1.282c0-1.116 0-2.756-.137-4.699a129.31 129.31 0 0 0-1.725-15.391c-1.035-5.966-2.276-11.313-3.201-15.157-.455-1.888-.828-3.445-1.104-4.575l-.275-1.254a2.638 2.638 0 0 1-.083-.441c.068.137.124.28.165.427.083.317.207.731.359 1.227.304 1.074.717 2.618 1.214 4.547.993 3.844 2.29 9.191 3.325 15.157a112.147 112.147 0 0 1 1.614 15.447v5.994a2.256 2.256 0 0 1-.152.441z" fill="#263238"/>
    <path d="M632.692 209.335a30.227 30.227 0 0 1-10.945-10.671 30.16 30.16 0 0 1-4.313-14.656c-.359-7.399 1.917-14.647 4.497-21.592a2.76 2.76 0 0 1 1.049-1.571 2.664 2.664 0 0 1 2.525.4c6.746 3.831 10.83 11.147 13.01 18.588a37.543 37.543 0 0 1 1.531 15.281 25.39 25.39 0 0 1-7.354 14.221z" fill="#000" opacity=".3"/>
    <path d="M643.164 265.609c9.133 1.998 16.652 8.433 25.468 11.561 5.822 2.067 12.417 2.756 17.08 6.889-1.117-2.755-3.766-4.698-6.346-6.297a113.356 113.356 0 0 0-23.081-11.023c-4.139-1.378-8.637-2.618-12.859-1.447M629.961 273.739c-11.438-.193-23.454-9.921-34.864-10.5 11.906-3.845 28.973-.703 34.864 10.5zM634.431 246.332a37.165 37.165 0 0 1 18.28-1.24 109.8 109.8 0 0 1 17.853 4.836c-.58-3.954-3.794-6.889-6.816-9.576a47.52 47.52 0 0 0-7.174-5.512 15.918 15.918 0 0 0-8.595-2.425 13.582 13.582 0 0 0-9.478 4.767 15.784 15.784 0 0 0-4.139 9.136M610.949 233.71c-7.188-6.132-18.101-5.512-27.593-5.319a223.999 223.999 0 0 1 42.769 26.608c.4-6.683-6.07-13.531-15.176-21.289z" fill="#455A64"/>
    <path d="M610.949 233.71c-7.188-6.132-18.101-5.512-27.593-5.319a223.999 223.999 0 0 1 42.769 26.608c.4-6.683-6.07-13.531-15.176-21.289z" fill="#000" opacity=".3"/>
    <path d="M637.673 225.236a80.455 80.455 0 0 1 11.037-6.422c3.794-1.722 7.326-4.464 11.037-6.434 4.746-2.577 8.858-6.146 13.204-9.315 4.345-3.169 9.147-6.063 14.472-6.89a28.412 28.412 0 0 0-13.162.758 85.246 85.246 0 0 0-12.417 4.823c-5.615 2.521-11.326 5.112-15.921 9.218-4.594 4.106-8.733 8.144-8.278 14.275" fill="#455A64"/>
    <path d="m668.425 273.739-.372-.166-.993-.509c-.856-.455-2.098-1.144-3.657-1.916a49.094 49.094 0 0 0-2.552-1.267c-.924-.428-1.918-.91-2.966-1.378a43.486 43.486 0 0 0-7.05-2.453 15.065 15.065 0 0 0-7.326-.179 20.624 20.624 0 0 0-3.118.923c-.871.357-1.711.786-2.511 1.281a16.11 16.11 0 0 0-3.146 2.605c-.662.716-.993 1.143-1.021 1.13l.207-.345c.152-.207.373-.51.69-.882a14.574 14.574 0 0 1 3.118-2.756 16.83 16.83 0 0 1 2.539-1.378 21.725 21.725 0 0 1 3.145-.978 15.337 15.337 0 0 1 7.519.152 41.908 41.908 0 0 1 7.106 2.508c1.062.468 2.055.937 2.966 1.377.91.441 1.78.882 2.538 1.31a66.907 66.907 0 0 1 3.601 2.039l.952.579c.124.085.235.187.331.303zM621.435 268.075c.248.031.49.101.717.207.638.23 1.26.501 1.862.813a23.188 23.188 0 0 1 5.519 3.858 22.87 22.87 0 0 1 4.139 5.305c.336.59.631 1.202.883 1.833.114.222.198.458.248.703 0 0-.496-.937-1.379-2.384a25.374 25.374 0 0 0-9.437-9.067c-1.601-.813-2.58-1.199-2.552-1.268zM596.118 233.145c.171.022.339.068.497.138l1.379.496 2.166.799c.842.303 1.766.772 2.76 1.226a65.746 65.746 0 0 1 14.914 9.467 72.568 72.568 0 0 1 11.837 13.063 114.886 114.886 0 0 1 2.966 4.45c.331.496.58.91.787 1.227.104.133.188.282.248.441l-.317-.4a43.295 43.295 0 0 1-.842-1.185c-.731-1.034-1.752-2.549-3.077-4.368-1.324-1.819-3.007-3.927-4.98-6.159a77.283 77.283 0 0 0-6.898-6.766 69.773 69.773 0 0 0-14.763-9.508c-1.02-.468-1.931-.951-2.759-1.281l-2.138-.868-1.38-.552-.4-.22zM651.594 239.911a3.684 3.684 0 0 1-.911-.124l-1.048-.193c-.414-.083-.897-.083-1.38-.138a14.527 14.527 0 0 0-7.864 1.557 14.074 14.074 0 0 0-3.573 2.645 16.365 16.365 0 0 0-2.304 2.839 24.653 24.653 0 0 0-1.573 3.004 3.71 3.71 0 0 1 .234-.896c.292-.786.656-1.542 1.09-2.26a15.915 15.915 0 0 1 2.277-2.948 13.95 13.95 0 0 1 11.74-4.217c.525.069 1.008.097 1.38.193l1.049.262c.303.059.6.151.883.276zM663.086 204.291c-.127.11-.272.198-.428.262l-1.283.703c-1.103.592-2.759 1.474-4.649 2.618a127.602 127.602 0 0 0-6.622 4.299 55.653 55.653 0 0 0-7.395 6.187 18.967 18.967 0 0 0-3.022 3.913 201.738 201.738 0 0 0-2.124 4.134 78.23 78.23 0 0 0-3.187 7.234 45.07 45.07 0 0 0-1.546 5.085c-.289 1.212-.4 1.915-.427 1.901a2.289 2.289 0 0 1 0-.51c0-.33.11-.813.234-1.378a39.388 39.388 0 0 1 1.38-5.153 69.756 69.756 0 0 1 3.104-7.289c.649-1.378 1.38-2.756 2.111-4.134a18.6 18.6 0 0 1 3.09-4.01 53.333 53.333 0 0 1 7.464-6.214 88.833 88.833 0 0 1 6.705-4.244 86.637 86.637 0 0 1 4.719-2.522l1.379-.62.497-.262zM631.009 238.877a5.68 5.68 0 0 1-.22-.964c-.138-.703-.304-1.585-.497-2.632a74.813 74.813 0 0 0-2.166-8.571 73.898 73.898 0 0 0-3.27-8.268 287.94 287.94 0 0 0-1.117-2.438 4.845 4.845 0 0 1-.359-.924c.203.264.374.551.51.855.304.551.732 1.378 1.228 2.383a59.752 59.752 0 0 1 3.394 8.268 57.561 57.561 0 0 1 2.056 8.64c.179 1.116.317 2.039.372 2.673.066.321.09.65.069.978z" fill="#263238"/>
    <path d="M630.182 212.89a30.706 30.706 0 0 0-3.712-12.333 40.718 40.718 0 0 0-11.514-13.34 40.778 40.778 0 0 0-16.079-7.232l25.579 38.072 3.311 6.793a19.516 19.516 0 0 0 2.415-11.96z" fill="#455A64"/>
    <path d="M666.88 287.931h-59.476v10.528h59.476v-10.528z" fill="#DD2745"/>
    <path d="m611.846 296.364 5.063 32.671h39.486l6.043-32.671h-50.592z" fill="#DD2745"/>
    <path d="M666.853 298.473c0 .11-13.424.206-29.966.206s-29.966-.096-29.966-.206c0-.111 13.41-.207 29.966-.207 16.555 0 29.966.096 29.966.207z" fill="#263238"/>
    <path d="M546.475 311.933H499.65v7.841h46.825v-7.841z" fill="#fff"/>
    <path d="M524.883 295.894a43.234 43.234 0 0 0-2.124-8.874 25.056 25.056 0 0 0-4.884-8.157 12.428 12.428 0 0 0-19.081-.069 24.545 24.545 0 0 0-4.911 8.13 43.334 43.334 0 0 0-2.153 8.86 1.957 1.957 0 0 1 0-.648c.023-.618.079-1.234.166-1.846a30.94 30.94 0 0 1 1.573-6.573 24.885 24.885 0 0 1 4.925-8.405 12.842 12.842 0 0 1 9.957-4.67 12.854 12.854 0 0 1 9.924 4.739 25.035 25.035 0 0 1 4.898 8.432 31.065 31.065 0 0 1 1.559 6.587c.084.617.135 1.238.151 1.86.035.21.035.424 0 .634z" fill="#263238"/>
    <path d="M530.623 295.894a43.236 43.236 0 0 0-2.125-8.874 24.795 24.795 0 0 0-4.884-8.157 12.421 12.421 0 0 0-19.08-.069 24.53 24.53 0 0 0-4.912 8.13 43.266 43.266 0 0 0-2.152 8.86 1.905 1.905 0 0 1 0-.648c.023-.618.078-1.234.165-1.846a30.94 30.94 0 0 1 1.573-6.573 24.888 24.888 0 0 1 4.926-8.405 12.83 12.83 0 0 1 4.452-3.454 12.86 12.86 0 0 1 15.428 3.523 24.797 24.797 0 0 1 4.898 8.432 31.065 31.065 0 0 1 1.559 6.587c.097.799.152 1.378.165 1.846.029.216.025.434-.013.648z" fill="#263238"/>
    <path d="m472.484 292.049 64.678-.454 1.407 80.14H466l6.484-79.686z" fill="#DD2745"/>
    <path d="M537.162 291.595h8.113l6.994 80.14h-13.7l-1.407-80.14z" fill="#DD2745"/>
    <path d="M537.162 291.595h8.113l6.994 80.14h-13.7l-1.407-80.14z" fill="#000" opacity=".3"/>
    <path d="M526.139 318.809h-42.342v8.102h42.342v-8.102z" fill="#fff"/>
    <path d="M287.698 258.664a.673.673 0 0 1-.676-.564l-25.303-126.687a.696.696 0 0 1 .29-.709.68.68 0 0 1 .248-.104.703.703 0 0 1 .814.551l25.331 126.687a.706.706 0 0 1-.539.813l-.165.013zM309.524 257.452a.68.68 0 0 1-.676-.551l-22.074-118.075a.683.683 0 0 1 .109-.525.695.695 0 0 1 .723-.292.706.706 0 0 1 .445.302c.05.077.085.163.102.253l22.075 118.075a.702.702 0 0 1-.552.813h-.152zM329.791 256.28a.676.676 0 0 1-.676-.578l-17.19-116.325a.677.677 0 0 1 .126-.513.701.701 0 0 1 .453-.272.7.7 0 0 1 .786.578l17.191 116.325a.701.701 0 0 1-.58.785h-.11zM352.817 256.763a.688.688 0 0 1-.676-.593l-16.735-113.21a.687.687 0 0 1 .134-.516.7.7 0 0 1 .975-.136.69.69 0 0 1 .271.459l16.735 113.197a.678.678 0 0 1-.127.512.68.68 0 0 1-.453.273l-.124.014zM375.085 252.505a.672.672 0 0 1-.676-.579l-15.397-104.199a.678.678 0 0 1 .127-.512.68.68 0 0 1 .452-.273.706.706 0 0 1 .787.579l15.397 104.198a.704.704 0 0 1-.58.786h-.11zM398.318 254.779a.691.691 0 0 1-.676-.593l-15.424-104.047a.695.695 0 0 1 .586-.792.694.694 0 0 1 .793.585l15.37 104.006a.693.693 0 0 1-.594.786l-.055.055zM418.833 252.505a.673.673 0 0 1-.676-.62l-9.905-97.833a.67.67 0 0 1 .362-.671.706.706 0 0 1 1.017.533l9.892 97.833a.685.685 0 0 1-.621.758h-.069zM436.024 252.505a.691.691 0 0 1-.69-.662l-3.311-94.167a.683.683 0 0 1 .4-.654.704.704 0 0 1 .262-.063.718.718 0 0 1 .718.676l3.311 94.167a.688.688 0 0 1-.662.703h-.028z" fill="#E0E0E0"/>
    <path d="m263.306 236.962 18.97-.937 45.528-2.273 54.897-2.756 47.459-2.357 15.715-.785c2.469-.124 4.994-.11 7.45-.372h.331c1.104 0 1.117-1.778 0-1.722l-18.97.937-45.529 2.259-54.896 2.756-47.46 2.398-15.7.785c-2.484.124-5.008.097-7.464.372h-.331c-1.104 0-1.104 1.778 0 1.723v-.028zM257.497 203.534l19.674.413 47.088.992 56.938 1.185 49.35 1.034 16.238.33c2.525 0 5.105.262 7.63.166h.345a.871.871 0 0 0 .542-1.436.875.875 0 0 0-.542-.287l-19.688-.399-47.087-.992-56.925-1.186-49.363-1.033-16.225-.344c-2.525 0-5.105-.248-7.63-.152h-.345a.868.868 0 0 0 0 1.722v-.013zM248.999 165.613l20.695 1.957 49.446 4.671 59.78 5.65 51.806 4.905 16.97 1.598c2.662.262 5.394.717 8.071.772h.358c1.104.11 1.104-1.612 0-1.722l-20.694-1.957-49.447-4.671-59.78-5.65-51.806-4.905-16.97-1.599c-2.662-.248-5.394-.716-8.07-.757h-.359c-1.104-.097-1.104 1.625 0 1.722v-.014z" fill="#E0E0E0"/>
    <path d="M274.991 263.446a10.742 10.742 0 0 1-6.778-2.39 10.716 10.716 0 0 1-3.748-6.126l-27.11-126.204a2.752 2.752 0 0 1 1.779-3.114 2.771 2.771 0 0 1 1.283-.138l217.681 33.332a2.75 2.75 0 0 1 2.304 2.852l-5.063 82.483a10.767 10.767 0 0 1-3.17 6.977 10.795 10.795 0 0 1-7.012 3.109l-169.517 9.191-.649.028zM243.522 131.44l26.213 122.346a5.3 5.3 0 0 0 5.519 4.217l169.517-9.205a5.325 5.325 0 0 0 5.049-5.043l5.022-79.92-211.32-32.395z" fill="#E0E0E0"/>
    <path d="m243.522 131.44 1.007.124 3.007.455 11.686 1.75 43.873 6.628 151.761 23.052h.304v.386c-.856 13.78-1.739 28.041-2.649 42.785-.46 7.349-.92 14.822-1.38 22.419-.23 3.775-.464 7.578-.704 11.409l-.179 2.866a6.326 6.326 0 0 1-.745 2.921 5.76 5.76 0 0 1-5.063 2.963l-117.408 6.338-51.268 2.756a5.681 5.681 0 0 1-5.408-2.522 6.237 6.237 0 0 1-.662-1.377c-.138-.496-.221-.979-.332-1.447-.206-.965-.413-1.916-.607-2.866-.814-3.79-1.614-7.524-2.386-11.175a16720.23 16720.23 0 0 0-4.484-21c-11.258-53.229-17.936-84.494-18.294-86.423.427 1.929 7.229 33.208 18.804 86.451a9952.362 9952.362 0 0 0 4.525 20.917c.773 3.674 1.573 7.381 2.401 11.119.193.951.4 1.902.607 2.853a6.89 6.89 0 0 0 .924 2.659 5.064 5.064 0 0 0 4.884 2.246l51.268-2.756 117.477-6.407a5.08 5.08 0 0 0 4.484-2.591c.43-.805.653-1.705.648-2.618l.18-2.866c.239-3.83.473-7.638.703-11.423.469-7.569.929-15.038 1.38-22.405.924-14.744 1.821-29.06 2.677-42.798l.289.372-151.471-23.425-43.942-6.876-11.81-1.791-3.049-.496-1.048-.207z" fill="#263238"/>
    <path d="m274.991 263.446 25.193-1.502 68.706-3.831 47.446-2.618 26.434-1.46a27.26 27.26 0 0 0 3.381-.235 10.66 10.66 0 0 0 3.159-1.047 10.4 10.4 0 0 0 5.587-8.006c.125-1.13.166-2.342.249-3.513.152-2.37.29-4.74.441-7.138 1.187-19.139 2.428-39.243 3.712-60.078l.496-7.84c0-1.378.152-2.632.235-3.955a2.986 2.986 0 0 0-.193-1.763 2.403 2.403 0 0 0-1.228-1.158 13.278 13.278 0 0 0-1.877-.358l-1.972-.303-3.974-.607-7.96-1.212-32.45-4.975-123.561-18.946-27.745-4.258-13.286-2.012-3.256-.496-1.614-.248a3.294 3.294 0 0 0-1.504 0 2.42 2.42 0 0 0-1.766 2.054c-.031.502.03 1.007.18 1.488l.331 1.571a39691.06 39691.06 0 0 1 9.919 46.422c6.043 28.371 10.927 51.328 14.307 67.215l2.235 10.555a10.622 10.622 0 0 0 3.114 5.412 10.643 10.643 0 0 0 5.62 2.732c1.076.192 1.641.137 1.641.179h-.386c-.415-.007-.83-.039-1.242-.097a10.685 10.685 0 0 1-8.926-8.185c-.662-3.059-1.43-6.572-2.304-10.541-3.435-15.874-8.388-38.816-14.528-67.174-3.062-14.179-6.401-29.722-10.002-46.394l-.331-1.571a4.672 4.672 0 0 1-.207-1.681 3.032 3.032 0 0 1 2.221-2.563 3.897 3.897 0 0 1 1.739 0l1.627.248 3.256.496 13.286 2.039 27.759 4.23 123.561 18.892 32.408 4.905 7.975 1.213 3.959.606 1.987.303a11.87 11.87 0 0 1 2.028.4 3.07 3.07 0 0 1 1.6 1.515c.291.663.387 1.394.276 2.109l-.248 3.954-.497 7.841c-1.297 20.834-2.552 40.938-3.752 60.077-.152 2.398-.304 4.768-.456 7.138-.083 1.185-.11 2.342-.248 3.541a11.389 11.389 0 0 1-1.007 3.459 11.03 11.03 0 0 1-4.926 5.043 10.84 10.84 0 0 1-3.366 1.102c-1.186.166-2.304.18-3.449.248l-26.434 1.378-47.446 2.522-68.72 3.624-18.695.937-4.856.234c-1.09.097-1.656.083-1.656.083z" fill="#263238"/>
    <path d="M244.625 340.086a2.567 2.567 0 0 1-1.379-.413 2.59 2.59 0 0 1-.8-3.583l39.195-61.373a29.514 29.514 0 0 1 17.734-12.752 29.543 29.543 0 0 1 21.655 2.928l100.149 56.371.193.11c6.029 4.134 9.326 8.571 9.809 13.214a2.603 2.603 0 0 1-3.355 2.938 2.625 2.625 0 0 1-1.569-1.368 2.6 2.6 0 0 1-.249-1.032c-.318-3.032-2.829-6.201-7.478-9.398l-100.052-56.316a24.363 24.363 0 0 0-17.839-2.398 24.328 24.328 0 0 0-14.61 10.501l-39.21 61.317a2.597 2.597 0 0 1-.935.91 2.6 2.6 0 0 1-1.259.344z" fill="#E0E0E0"/>
    <path d="M244.625 340.086c.378-.02.749-.113 1.09-.275a2.551 2.551 0 0 0 1.035-.924c.304-.468.648-1.033 1.035-1.653l6.898-11.024c6.084-9.562 14.886-23.424 25.813-40.635 1.38-2.149 2.76-4.354 4.208-6.6a28.708 28.708 0 0 1 5.091-6.476 24.616 24.616 0 0 1 25.123-5.043 26.64 26.64 0 0 1 4.305 2.039l4.139 2.356 17.466 9.77 77.895 43.79a28.454 28.454 0 0 1 4.567 3.845 10.88 10.88 0 0 1 2.994 5.374c.015.481.143.953.372 1.377.222.388.56.696.966.882a2.209 2.209 0 0 0 2.469-.358c.332-.302.568-.695.676-1.13a3.475 3.475 0 0 0 0-1.378 12.661 12.661 0 0 0-.869-2.893 23.78 23.78 0 0 0-8.512-9.26c-3.642-2.136-7.423-4.134-11.037-6.283l-21.771-12.25-41.127-23.177-19.15-10.803c-3.118-1.709-6.153-3.555-9.188-5.098a29.288 29.288 0 0 0-28.118 1.543 28.96 28.96 0 0 0-6.801 5.898 67.198 67.198 0 0 0-4.912 7.165l-29.083 45.334c-3.435 5.36-6.167 9.494-7.905 12.318a2.538 2.538 0 0 0 0 2.095c.238.47.607.862 1.062 1.13.377.209.797.327 1.228.344h-.331a2.575 2.575 0 0 1-.938-.289 2.64 2.64 0 0 1-1.201-3.335c1.725-2.893 4.415-7.027 7.795-12.401 6.899-10.748 16.708-26.263 28.904-45.472a68.676 68.676 0 0 1 4.939-7.234 29.715 29.715 0 0 1 6.898-6.021 29.81 29.81 0 0 1 28.587-1.681c3.118 1.584 6.098 3.375 9.23 5.098l19.259 10.83 41.155 23.136 21.771 12.249c3.698 2.095 7.395 4.134 11.148 6.311a24.566 24.566 0 0 1 8.761 9.577c.421.981.726 2.008.91 3.059a4.035 4.035 0 0 1 0 1.681 2.751 2.751 0 0 1-.883 1.488 2.959 2.959 0 0 1-2.429.736 2.974 2.974 0 0 1-2.11-1.411 3.848 3.848 0 0 1-.455-1.585 10.151 10.151 0 0 0-2.76-5.015 27.877 27.877 0 0 0-4.456-3.734l-77.839-43.846-17.343-9.783-4.139-2.357a26.157 26.157 0 0 0-4.208-2.011 24.06 24.06 0 0 0-24.557 4.878 28.28 28.28 0 0 0-5.022 6.352c-1.38 2.26-2.842 4.45-4.222 6.6l-26.089 40.525-7.05 10.927c-.414.62-.759 1.171-1.076 1.653a2.57 2.57 0 0 1-1.076.91 2.133 2.133 0 0 1-1.132.165zM242.763 365.853c6.758 0 12.237-5.472 12.237-12.222 0-6.75-5.479-12.222-12.237-12.222-6.759 0-12.238 5.472-12.238 12.222 0 6.75 5.479 12.222 12.238 12.222z" fill="#263238"/>
    <path d="M250.516 340.885a1.737 1.737 0 0 0 .511-1.24v-1.047a1.761 1.761 0 0 0-1.766-1.764H237.92a1.765 1.765 0 0 0-1.766 1.764v1.047a1.699 1.699 0 0 0 .759 1.378l-5.38 1.02v2.935l5.822 2.122 3.325 8.267a2.59 2.59 0 0 0 2.4 1.61 2.595 2.595 0 0 0 2.401-1.61l3.325-8.35 5.822-1.378v-3.789l-4.112-.965z" fill="#E0E0E0"/>
    <path d="M250.517 340.885s.413 0 1.131.179c.717.18 1.724.276 2.994.524h.124v4.134h-.18l-5.794 1.46.193-.165c-.579 1.461-1.186 3.032-1.835 4.699l-1.021 2.549c-.179.455-.317.868-.538 1.378a2.929 2.929 0 0 1-2.785 1.586 2.922 2.922 0 0 1-2.568-1.917c-.207-.482-.4-.964-.593-1.46-.8-1.957-1.614-3.964-2.442-6.022l-.262-.634.207.193-5.809-2.08-.234-.083v-3.473h.276l5.38-.992-.124.593a2.078 2.078 0 0 1-.662-1.144 5.851 5.851 0 0 1-.069-1.268c-.036-.432.05-.867.248-1.253.202-.4.533-.72.939-.91.376-.168.79-.234 1.2-.193h3.145l6.899.083c.461-.019.923.009 1.379.083a1.9 1.9 0 0 1 1.063.744c.227.307.348.679.345 1.061v.882c0 1.129-.649 1.515-.621 1.474.312-.425.454-.95.4-1.474a2.853 2.853 0 0 0-.345-1.764 1.687 1.687 0 0 0-.911-.593 8.355 8.355 0 0 0-1.379 0l-6.899.083h-3.145a1.712 1.712 0 0 0-.938.152 1.516 1.516 0 0 0-.814 1.612 5.206 5.206 0 0 0 0 1.088c.09.324.297.603.579.786l.621.441-.759.151-5.38 1.034.289-.345v2.935l-.234-.331 5.822 2.067h.152v.152l.262.648 2.428 6.021.593 1.461a2.3 2.3 0 0 0 .787 1.074 2.246 2.246 0 0 0 2.455.124c.375-.208.678-.525.87-.909.179-.372.358-.868.538-1.281l1.021-2.55 1.903-4.671v-.138h.138l5.836-1.377-.165.22v-3.789l.124.151c-1.38-.303-2.401-.578-3.077-.758-.676-.179-.786-.248-.758-.248z" fill="#263238"/>
    <path d="M242.763 355.519a1.38 1.38 0 1 0 .002-2.758 1.38 1.38 0 0 0-.002 2.758zM441.362 355.719c1.597-7.036-2.819-14.033-9.864-15.627-7.045-1.595-14.05 2.816-15.647 9.852-1.596 7.036 2.82 14.032 9.865 15.627 7.045 1.595 14.05-2.816 15.646-9.852z" fill="#263238"/>
    <path d="M436.907 339.19c.162-.16.291-.351.378-.562a1.7 1.7 0 0 0 .132-.664v-1.378a1.781 1.781 0 0 0-1.766-1.764h-12.416a1.766 1.766 0 0 0-1.766 1.764v1.378a1.718 1.718 0 0 0 .731 1.378l-5.67 1.075v3.141l6.208 2.219 3.559 8.791a2.761 2.761 0 0 0 5.105 0l3.56-8.915 6.222-1.502V340.1l-4.277-.91z" fill="#E0E0E0"/>
    <path d="M436.907 339.19s.441.069 1.2.193l3.16.565h.138v4.396h-.166l-6.208 1.557.193-.166a517.664 517.664 0 0 1-1.973 5.016c-.345.896-.704 1.805-1.076 2.756-.193.482-.345.923-.58 1.378-.27.52-.681.954-1.186 1.254a3.099 3.099 0 0 1-3.408-.18 3.252 3.252 0 0 1-1.09-1.46 70.649 70.649 0 0 0-.635-1.557l-2.607-6.449-.262-.647.207.192-6.209-2.218-.234-.083v-3.527h.276l5.684-1.047-.138.592a2.093 2.093 0 0 1-.814-1.254 8.805 8.805 0 0 1 0-1.378c-.046-.47.03-.945.221-1.378a2.06 2.06 0 0 1 1.007-.964 2.753 2.753 0 0 1 1.283-.179H427.056l7.464.069a10.986 10.986 0 0 1 1.518 0c.469.104.879.385 1.145.785.229.336.345.737.331 1.144v.937c.041.442-.06.887-.29 1.267-.08.133-.188.246-.317.331a2.139 2.139 0 0 0 .4-1.598c-.069-.552.11-1.378-.345-1.902a1.598 1.598 0 0 0-.979-.62 9.93 9.93 0 0 0-1.38 0l-7.464.069h-3.366a2.214 2.214 0 0 0-1.035.138 1.49 1.49 0 0 0-.704.689c-.137.34-.184.71-.138 1.074-.022.395-.022.791 0 1.185.084.346.29.649.58.855l.621.441-.745.151-5.685 1.089.29-.345v3.142l-.234-.331 6.222 2.205h.152v.152l.262.661a1011.76 1011.76 0 0 1 2.607 6.449l.621 1.557a2.448 2.448 0 0 0 1.427 1.513 2.448 2.448 0 0 0 2.077-.135c.399-.232.724-.571.939-.979.193-.413.386-.937.565-1.378.387-.937.745-1.846 1.104-2.755l2.042-5.002v-.138h.138l6.222-1.447-.166.207v-4.051l.125.165a149.06 149.06 0 0 1-3.243-.799 9.498 9.498 0 0 1-.91-.207z" fill="#263238"/>
    <path d="M430.064 353.342a1.484 1.484 0 0 1-.914 1.386 1.491 1.491 0 0 1-2.038-1.086 1.489 1.489 0 0 1 1.476-1.775 1.477 1.477 0 0 1 1.476 1.475zM390.344 257.355a5.891 5.891 0 0 1-1.132.124l-3.269.179-12.017.634c-10.14.538-24.158 1.378-39.624 2.398l-39.637 2.576-12.003.676-3.269.151a7.828 7.828 0 0 1-1.146 0c.372-.088.75-.139 1.132-.151l3.256-.276 12.003-.909c10.14-.744 24.143-1.764 39.609-2.756 15.466-.992 29.497-1.791 39.651-2.205 5.078-.22 9.189-.344 12.031-.399h3.283a10.19 10.19 0 0 1 1.132-.042z" fill="#263238"/>
    <path d="M239.176 131.496a2.072 2.072 0 0 1-1.697-.882l-9.12-13.035a2.069 2.069 0 0 1 2.058-3.222 2.072 2.072 0 0 1 1.336.851l9.12 13.036a2.071 2.071 0 0 1 .348 1.546 2.067 2.067 0 0 1-.859 1.334 1.99 1.99 0 0 1-1.186.372z" fill="#E0E0E0"/>
    <path d="M238.155 118.24a9.388 9.388 0 0 1-5.8 8.669 9.402 9.402 0 0 1-10.239-2.034 9.373 9.373 0 0 1 1.424-14.437 9.403 9.403 0 0 1 11.863 1.167 9.375 9.375 0 0 1 2.752 6.635z" fill="#455A64"/>
    <path d="M133.931 265.146a38.522 38.522 0 0 0-1.695-7.686 21.802 21.802 0 0 0-4.156-7.1 10.695 10.695 0 0 0-16.44-.275 21.109 21.109 0 0 0-4.391 6.929 38.482 38.482 0 0 0-1.994 7.61 2.709 2.709 0 0 1 .009-.555c.006-.356.015-.896.169-1.577.296-1.939.806-3.84 1.52-5.668a21.321 21.321 0 0 1 4.395-7.17 11.056 11.056 0 0 1 8.615-3.897 11.055 11.055 0 0 1 8.48 4.182 21.625 21.625 0 0 1 4.152 7.342 26.767 26.767 0 0 1 1.258 5.714c.065.53.099 1.063.102 1.596.01.185.002.371-.024.555z" fill="#263238"/>
    <path d="M138.875 265.228a38.085 38.085 0 0 0-1.71-7.685 21.71 21.71 0 0 0-4.085-7.099 10.706 10.706 0 0 0-16.454-.275 21.586 21.586 0 0 0-4.391 6.929 36.506 36.506 0 0 0-1.98 7.609l.009-.554a11.75 11.75 0 0 1 .169-1.577 25.615 25.615 0 0 1 1.449-5.669 21.51 21.51 0 0 1 4.395-7.171 11.09 11.09 0 0 1 3.871-2.909 11.093 11.093 0 0 1 9.453.158 11.069 11.069 0 0 1 3.771 3.037 21.615 21.615 0 0 1 4.152 7.342 26.593 26.593 0 0 1 1.244 5.714c.074.684.108 1.225.116 1.595.015.185.012.371-.009.555z" fill="#263238"/>
    <path d="m88.827 261.076 55.723.547.068 69.07-62.54-1.045 6.749-68.572zM144.55 261.623l7.009.117 4.855 69.15-11.796-.197-.068-69.07z" fill="#455A64"/>
    <path d="m144.551 261.623 7.008.117 4.854 69.15-11.795-.197-.067-69.07z" fill="#000" opacity=".3"/>
    <path d="m134.669 284.912-36.484-.609-.117 6.972 36.484.609.117-6.972z" fill="#fff"/>
    <path d="M179.498 282.119s-16.025 1.055-17.29 3.872c0 0-.102 11.786 11.343 23.547l-2.202 4.854.061 7.862c5.186-10.264 10.925-25.945 10.925-25.945s.174-10.995-2.837-14.19z" fill="#E0E0E0"/>
    <path d="M178.933 283.158s-5.471 14.568-1.944 24.978c0 0 7.57-12.882 1.944-24.978z" fill="#000" opacity=".3"/>
    <path d="M204.298 301.431s-7.568-14.143-10.652-14.14c0 0-10.798 4.812-16.822 20.005l-5.338.007s-2.927-12.18-17.23-18.771c0 0-7.994 14.663-8.277 14.547a28.896 28.896 0 0 0 18.364 7.495c11.499.496 28.171-.724 28.171-.724s10.133-4.358 11.784-8.419z" fill="#E0E0E0"/>
    <path d="M168.74 309.304s-12.075-6.819-21.719-6.087c-.055-.003 11.285 9.363 21.719 6.087zM203.114 301.351s-15.475 1.094-23.598 8.514c0 0 14.883 1.588 23.598-8.514z" fill="#000" opacity=".3"/>
    <path d="m227.752 309.523-3.679 63.777-98.553-.038-1.325-63.79 103.557.051z" fill="#DD2745"/>
    <path d="m209.05 309.504-.035 63.799 15.054-.003 3.683-63.778-18.702-.018z" fill="#000" opacity=".3"/>
    <path d="m220.341 309.518-2.545 63.783-3.415-.005.029-63.783 5.931.005zM171.527 309.495l-8.209-.004-.032 63.784 8.208.004.033-63.784z" fill="#F5F5F5"/>
    <path d="m225.795 336.62-100.987.9.056 6.187 100.986-.9-.055-6.187z" fill="#F5F5F5"/>
</svg>
