<svg width="40" height="40" viewBox="0 0 40 40" fill="none" xmlns="http://www.w3.org/2000/svg">
    <g clip-path="url(#gimllu92fa)">
        <g clip-path="url(#46lisp56wb)">
            <circle cx="20" cy="20" r="20" fill="#fff"/>
            <path d="M24.19 12.375a.556.556 0 0 1-.556-.556V6.852a4.226 4.226 0 0 0-4.22-4.22 4.226 4.226 0 0 0-4.222 4.22v4.967a.556.556 0 1 1-1.112 0V6.852a5.34 5.34 0 0 1 5.333-5.333 5.34 5.34 0 0 1 5.334 5.333v4.967a.556.556 0 0 1-.556.556z" fill="#1F1F1F"/>
            <path d="M14.062 11.82h-2.585a.763.763 0 0 0-.762.72L9.274 38.13a.763.763 0 0 0 .762.807h2.499l4.069-10.04-2.542-17.078z" fill="#545454"/>
            <path d="M12.664 36.646 13 30.67l-1.014-1.685a.616.616 0 0 0-1.056 0l-1.166 1.937-.086.02-.343 6.088.041-.014 2.082-.882 1.205.51z" fill="#1F1F1F"/>
            <path d="M31.203 38.148s-.825.788-1.785.788H12.535l1.528-27.118h13.913s1.745.038 1.745 1.621c0 1.584 1.482 24.709 1.482 24.709z" fill="#F2526C"/>
            <path d="M15.68 32.437 14.2 34.144l.195 2.251a.616.616 0 0 1-.854.621l-.876-.37.337-5.975.151.251 2.202.51a.617.617 0 0 1 .327 1.005zM21.137 33.797l-2.081.882a.616.616 0 0 1-.855-.621l.196-2.252-1.482-1.707a.617.617 0 0 1 .326-1.004l2.202-.51 1.166-1.937a.616.616 0 0 1 1.056 0l1.166 1.937 2.201.51a.617.617 0 0 1 .327 1.004l-1.482 1.707.196 2.252a.616.616 0 0 1-.855.62l-2.081-.881zM33 38.13l-1.441-25.592a.764.764 0 0 0-.763-.72h-2.82c.405 0 .74.316.762.72l.98 17.394-.596.99-2.202.51a.617.617 0 0 0-.326 1.005l1.482 1.706-.196 2.252a.616.616 0 0 0 .854.62l.681-.288a.511.511 0 0 1 .71.442l.055.96a.763.763 0 0 1-.762.807h2.82A.763.763 0 0 0 33 38.13z" fill="#DD2745"/>
            <path d="M27.368 17.442a1.54 1.54 0 0 1-1.072-.43 1.561 1.561 0 0 1-.481-1.124.556.556 0 1 1 1.112 0 .44.44 0 0 0 .463.441.45.45 0 0 0 .42-.42.438.438 0 0 0-.171-.371 2.107 2.107 0 0 1-.826-1.678V6.852a4.226 4.226 0 0 0-4.22-4.22 4.226 4.226 0 0 0-4.222 4.22v7.008c0 .313.144.604.394.797.4.31.626.797.603 1.303a1.565 1.565 0 0 1-1.48 1.48 1.543 1.543 0 0 1-1.146-.428 1.562 1.562 0 0 1-.481-1.124.556.556 0 1 1 1.112 0 .442.442 0 0 0 .463.441.45.45 0 0 0 .42-.42.438.438 0 0 0-.172-.371 2.107 2.107 0 0 1-.825-1.678V6.852a5.34 5.34 0 0 1 5.333-5.333 5.34 5.34 0 0 1 5.334 5.333v7.008c0 .313.143.604.393.797.4.31.626.797.603 1.303a1.565 1.565 0 0 1-1.554 1.482z" fill="#545454"/>
            <path d="m11.33 33.032-1.93.818a.572.572 0 0 1-.794-.576l.182-2.09-1.375-1.583a.572.572 0 0 1 .303-.932l2.043-.473 1.081-1.797a.572.572 0 0 1 .98 0l1.081 1.797 2.043.473c.42.097.586.607.303.932l-1.374 1.584.18 2.089a.572.572 0 0 1-.792.576l-1.93-.818zM21.137 30.863l-1.931.818a.572.572 0 0 1-.793-.576l.181-2.09-1.374-1.583a.572.572 0 0 1 .303-.932l2.042-.473 1.082-1.797a.572.572 0 0 1 .98 0l1.081 1.797 2.043.473c.42.097.585.607.303.932l-1.375 1.584.181 2.089a.572.572 0 0 1-.792.576l-1.931-.818zM30.942 33.032l-1.93.818a.572.572 0 0 1-.793-.576l.18-2.09-1.374-1.583a.572.572 0 0 1 .303-.932l2.043-.473 1.081-1.797a.572.572 0 0 1 .98 0l1.082 1.797 2.043.473c.42.097.585.607.303.932l-1.375 1.584.181 2.089a.572.572 0 0 1-.793.576l-1.93-.818z" fill="#FDDD45"/>
        </g>
    </g>
    <defs>
        <clipPath id="gimllu92fa">
            <path fill="#fff" d="M0 0h40v40H0z"/>
        </clipPath>
        <clipPath id="46lisp56wb">
            <path fill="#fff" d="M0 0h40v40H0z"/>
        </clipPath>
    </defs>
</svg>
