<?xml version="1.0" encoding="utf-8"?>
<!-- Generator: Adobe Illustrator 26.0.1, SVG Export Plug-In . SVG Version: 6.00 Build 0)  -->
<svg version="1.1" id="Layer_1" xmlns="http://www.w3.org/2000/svg" xmlns:xlink="http://www.w3.org/1999/xlink" x="0px" y="0px"
	 viewBox="0 0 700 400" style="enable-background:new 0 0 700 400;" xml:space="preserve">
<style type="text/css">
	.st0{fill:#E73359;}
	.st1{fill:#F6A8C0;}
	.st2{fill:#FFFFFF;}
	.st3{fill:#612F8D;}
	.st4{fill:#BE9DCA;}
	.st5{fill:#0572BA;}
	.st6{fill:#9EDDF9;}
</style>
<path class="st0" d="M337.69,138.85H229.83v-36.96c0-8.29,6.72-15.01,15.01-15.01h92.86V138.85z"/>
<path class="st0" d="M421.59,138.85h107.87v-36.91c0-8.31-6.74-15.05-15.05-15.05h-92.81V138.85z"/>
<path class="st0" d="M251.47,338.15h86.23V152.76h-90.1v181.52C247.6,336.42,249.33,338.15,251.47,338.15z"/>
<path class="st0" d="M508.09,338.15h-86.5V152.76h90.1v181.79C511.69,336.54,510.08,338.15,508.09,338.15z"/>
<rect x="350.52" y="86.88" class="st1" width="56.83" height="251.27"/>
<path class="st1" d="M302.24,73.05h71.41l-52.3-63.61c0,0-10.31-3.77-10.81,5.78c-0.5,9.55-0.75,22.88-0.75,22.88h-24.64
	c0,0-8.05,5.28-1.38,13.07S302.24,73.05,302.24,73.05z"/>
<path class="st1" d="M456,73.05h-71.41l52.3-63.61c0,0,10.31-3.77,10.81,5.78c0.5,9.55,0.75,22.88,0.75,22.88h24.64
	c0,0,8.05,5.28,1.38,13.07S456,73.05,456,73.05z"/>
<rect x="464.39" y="248.16" class="st2" width="76.37" height="33.9"/>
<rect x="213.67" y="209.74" class="st2" width="76.37" height="33.9"/>
<path class="st3" d="M142.56,218.41H51.3c-0.09,0-0.16-0.07-0.16-0.16V189.7c0-8.47,6.87-15.34,15.34-15.34h76.09V218.41z"/>
<path class="st3" d="M213.67,218.41h91.26c0.09,0,0.16-0.07,0.16-0.16v-28.83c0-8.31-6.74-15.05-15.05-15.05h-76.38V218.41z"/>
<path class="st3" d="M81.85,387.34h60.71V230.2H66.19v141.48C66.19,380.33,73.2,387.34,81.85,387.34z"/>
<path class="st3" d="M274.84,387.34h-61.17V230.2h76.37v141.94C290.04,380.54,283.23,387.34,274.84,387.34z"/>
<rect x="153.43" y="174.37" class="st4" width="48.17" height="212.98"/>
<path class="st4" d="M112.51,162.64h60.53l-44.33-53.92c0,0-8.74-3.2-9.16,4.9c-0.43,8.1-0.64,19.39-0.64,19.39H98.02
	c0,0-6.82,4.48-1.17,11.08C102.49,150.71,112.51,162.64,112.51,162.64z"/>
<path class="st4" d="M242.83,162.64h-60.53l44.33-53.92c0,0,8.74-3.2,9.16,4.9s0.64,19.39,0.64,19.39h20.89
	c0,0,6.82,4.48,1.17,11.08C252.85,150.71,242.83,162.64,242.83,162.64z"/>
<path class="st5" d="M523.36,256.01h-70.6v-18.96c0-8.31,6.74-15.05,15.05-15.05h55.55V256.01z"/>
<path class="st5" d="M578.27,256.01h70.6v-18.98c0-8.3-6.73-15.03-15.03-15.03h-55.57V256.01z"/>
<path class="st5" d="M479.36,386.45h44V265.11h-58.97v106.37C464.39,379.75,471.09,386.45,479.36,386.45z"/>
<path class="st5" d="M622.29,386.45h-44.02V265.11h58.97V371.5C637.24,379.76,630.55,386.45,622.29,386.45z"/>
<rect x="531.75" y="222" class="st6" width="37.19" height="164.46"/>
<path class="st6" d="M500.16,212.95h46.74l-34.23-41.64c0,0-6.75-2.47-7.08,3.79c-0.33,6.25-0.49,14.98-0.49,14.98h-16.13
	c0,0-5.27,3.46-0.91,8.56C492.42,203.73,500.16,212.95,500.16,212.95z"/>
<path class="st6" d="M600.79,212.95h-46.74l34.23-41.64c0,0,6.75-2.47,7.08,3.79c0.33,6.25,0.49,14.98,0.49,14.98h16.13
	c0,0,5.27,3.46,0.91,8.56C608.52,203.73,600.79,212.95,600.79,212.95z"/>
</svg>
