<?xml version="1.0" encoding="utf-8"?>
<!-- Generator: Adobe Illustrator 27.6.1, SVG Export Plug-In . SVG Version: 6.00 Build 0)  -->
<svg version="1.1" id="Layer_1" xmlns="http://www.w3.org/2000/svg" xmlns:xlink="http://www.w3.org/1999/xlink" x="0px" y="0px"
	 width="85px" height="85px" viewBox="0 0 85 85" enable-background="new 0 0 85 85" xml:space="preserve">
<g>
	<path fill-rule="evenodd" clip-rule="evenodd" fill="#555555" d="M67.9,64h2.4v3.6h-2.4V64z"/>
	<path fill="#555555" d="M72.7,64v4.8c0,0.3-0.1,0.6-0.4,0.8c-0.2,0.2-0.5,0.4-0.8,0.4h-4.8c-0.3,0-0.6-0.1-0.8-0.4
		c-0.2-0.2-0.4-0.5-0.4-0.8V64H62v12h14.3V64H72.7z"/>
	<g>
		<circle opacity="0.2" fill="#FF3C5D" cx="52.8" cy="32.5" r="27.6"/>
		<path fill-rule="evenodd" clip-rule="evenodd" fill="#555555" d="M17.7,72.9c0,0.3,0.2,0.5,0.4,0.7c0.2,0.2,0.5,0.3,0.8,0.3h5.7
			c-0.1,0.1-0.3,0.3-0.4,0.5c-0.3,0.4-0.4,0.9-0.5,1.4c-0.1,0.3-0.1,0.7,0,1c0,0.3,0.1,0.7,0.3,1c0.3,0.6,0.7,1.2,1.3,1.6
			c0.6,0.4,1.3,0.6,2,0.6c0.7,0,1.4-0.2,2-0.6c0.6-0.4,1-0.9,1.3-1.6c0.1-0.3,0.2-0.7,0.3-1c0-0.3,0-0.7,0-1
			c-0.1-0.5-0.3-0.9-0.5-1.4c-0.1-0.2-0.2-0.3-0.4-0.5h22.9v-2.4H19.9l-5.8-34.9c0-0.3-0.2-0.5-0.4-0.7c-0.2-0.2-0.5-0.3-0.8-0.3
			H4.6v2.4h7.4L17.7,72.9z"/>
		<path fill-rule="evenodd" clip-rule="evenodd" d="M27.3,75.3l-0.5,0.6c-0.1,0.1-0.2,0.2-0.2,0.4c0,0.1,0,0.3,0.1,0.4
			c0.1,0.1,0.1,0.2,0.3,0.3c0.1,0.1,0.3,0.1,0.4,0.1c0.1,0,0.3,0,0.4-0.1c0.1-0.1,0.2-0.2,0.3-0.3c0.1-0.1,0.1-0.3,0.1-0.4
			c0-0.1-0.1-0.3-0.2-0.4L27.3,75.3z"/>
		<path fill-rule="evenodd" clip-rule="evenodd" fill="#555555" d="M61.7,41.7H19.1l0.4,2.4h41.8L61.7,41.7z"/>
		<path fill-rule="evenodd" clip-rule="evenodd" fill="#555555" d="M28.5,34l1.9-1.9l-1.9-1.9l-1.9,1.9L28.5,34z"/>
		<path fill="#555555" d="M37.5,39.3l3.6-3.6l-9.1-9.1l-1.9,1.9l2.7,2.7c0.1,0.1,0.2,0.2,0.3,0.4c0.1,0.1,0.1,0.3,0.1,0.5
			s0,0.3-0.1,0.5c-0.1,0.1-0.1,0.3-0.3,0.4l-3.6,3.6c-0.1,0.1-0.2,0.2-0.4,0.3c-0.1,0.1-0.3,0.1-0.5,0.1c-0.2,0-0.3,0-0.5-0.1
			c-0.1-0.1-0.3-0.1-0.4-0.3l-2.7-2.7L23,35.7l3.6,3.6H37.5z"/>
		<path fill-rule="evenodd" clip-rule="evenodd" fill="#555555" d="M23.2,46.5c-1.7,0-3,1.5-2.7,3.2l2.5,15c0.3,1.9,2,3.3,4,3.3H38
			h4.8h12c1.5,0,2.7-1.1,3-2.5l2.8-16.1c0.3-1.6-0.9-3-2.5-3L23.2,46.5z M53.3,65.1H28.7c-1.6,0-2.9-1.1-3.1-2.7l-1.7-10.7
			c-0.2-1.4,0.9-2.7,2.3-2.7L55,49.1c1.3,0,2.2,1.1,2,2.4l-1.9,12C55,64.4,54.2,65.1,53.3,65.1z"/>
		<g>
			<path fill="#555555" d="M67.8,27.2l-1.9-1.9l-2.7,2.7c-0.1,0.1-0.2,0.2-0.4,0.3c-0.1,0.1-0.3,0.1-0.5,0.1c-0.2,0-0.3,0-0.5-0.1
				c-0.1-0.1-0.3-0.1-0.4-0.3l-3.6-3.6c-0.1-0.1-0.2-0.2-0.3-0.4c-0.1-0.1-0.1-0.3-0.1-0.5c0-0.2,0-0.3,0.1-0.5
				c0.1-0.1,0.1-0.3,0.3-0.4l2.7-2.7l-1.9-1.9l-9.1,9.1l9.1,9.1L67.8,27.2z"/>
			<path fill-rule="evenodd" clip-rule="evenodd" fill="#555555" d="M62.3,25.5l1.9-1.9l-1.9-1.9l-1.9,1.9L62.3,25.5z"/>
		</g>
		<circle fill-rule="evenodd" clip-rule="evenodd" fill="#555555" cx="50.1" cy="76.6" r="3.4"/>
	</g>
</g>
</svg>
