<?xml version="1.0" encoding="utf-8"?>
<!-- Generator: Adobe Illustrator 27.6.1, SVG Export Plug-In . SVG Version: 6.00 Build 0)  -->
<svg version="1.1" id="Layer_1" xmlns="http://www.w3.org/2000/svg" xmlns:xlink="http://www.w3.org/1999/xlink" x="0px" y="0px"
	 width="85px" height="85px" viewBox="0 0 85 85" enable-background="new 0 0 85 85" xml:space="preserve">
<g>
	<circle opacity="0.2" fill="#FF3C5D" cx="51.1" cy="46.6" r="27.6"/>
	<g>
		<path fill="#555555" d="M41.9,31.4h-6.3V18h6.3V31.4z M37.4,29.5h2.4v-9.7h-2.4V29.5z"/>
		<path fill="#555555" d="M38.7,18.4c-1,0-2-0.6-2.5-1.6c-1-2-0.5-4.9,1.6-7.8l0.7-1l0.8,0.9c3.4,3.9,2.5,6.9,2.1,7.7
			C40.8,17.7,39.8,18.4,38.7,18.4L38.7,18.4z M38.7,11.2c-1.2,2.2-1.2,3.9-0.8,4.8c0.1,0.2,0.4,0.6,0.8,0.6c0.4,0,0.7-0.3,0.9-0.8
			C40.1,14.9,40,13.2,38.7,11.2L38.7,11.2z"/>
		<path fill="#555555" d="M57.9,29.2H19.5c-2.1,0-3.7,1.7-3.7,3.7v17.2h45.8V32.9C61.6,30.9,59.9,29.2,57.9,29.2L57.9,29.2z
			 M59.1,47.6H18.2v-7.2c1.5,1.5,3.7,2.5,6,2.5c3.1,0,5.7-1.6,7.2-4.1c1.5,2.4,4.2,4.1,7.2,4.1s5.7-1.6,7.2-4.1
			c1.5,2.4,4.2,4.1,7.2,4.1c2.3,0,4.5-1,6-2.5L59.1,47.6L59.1,47.6z M53.1,40.5c-2.9,0-5.3-2-5.9-4.8c-0.1-0.5-0.4-0.9-0.8-1.1
			c-0.2-0.1-0.3-0.1-0.5-0.1c-0.2,0-0.4,0-0.5,0.1c-0.4,0.2-0.7,0.6-0.8,1.1c-0.6,2.7-3,4.8-5.9,4.8c-2.9,0-5.3-2-5.9-4.8
			c-0.1-0.5-0.4-0.9-0.8-1.1c-0.2-0.1-0.3-0.1-0.5-0.1c-0.2,0-0.4,0-0.5,0.1c-0.4,0.2-0.7,0.6-0.8,1.1c-0.6,2.7-3,4.8-5.9,4.8
			c-3.3,0-6-2.7-6-6v-1.6c0-0.7,0.6-1.2,1.2-1.2h38.4c0.7,0,1.2,0.6,1.2,1.2v1.6C59.1,37.8,56.4,40.5,53.1,40.5L53.1,40.5z"/>
		<path fill="#555555" d="M67.3,47.6H10c-2.1,0-3.7,1.7-3.7,3.7v24.4c0,0.7,0.6,1.2,1.2,1.2h62.3c0.7,0,1.2-0.6,1.2-1.2l0-24.4
			C71.1,49.3,69.4,47.6,67.3,47.6L67.3,47.6z M68.6,74.5H8.8V64.4c1.6,1.7,4,2.8,6.5,2.8c3.3,0,6.2-1.8,7.8-4.5
			c1.6,2.7,4.5,4.5,7.8,4.5s6.2-1.8,7.8-4.5c1.6,2.7,4.5,4.5,7.8,4.5c3.3,0,6.2-1.8,7.8-4.5c1.6,2.7,4.5,4.5,7.8,4.5
			c2.6,0,4.9-1.1,6.5-2.8L68.6,74.5L68.6,74.5z M62,64.7c-3.2,0-5.8-2.3-6.4-5.3c-0.1-0.5-0.4-0.9-0.8-1.1c-0.2-0.1-0.3-0.1-0.5-0.1
			c-0.2,0-0.4,0-0.5,0.1c-0.4,0.2-0.7,0.6-0.8,1.1c-0.6,3-3.2,5.3-6.4,5.3c-3.2,0-5.8-2.3-6.4-5.3c-0.1-0.5-0.4-0.9-0.8-1.1
			c-0.2-0.1-0.3-0.1-0.5-0.1c-0.2,0-0.4,0-0.5,0.1c-0.4,0.2-0.7,0.6-0.8,1.1c-0.6,3-3.2,5.3-6.4,5.3c-3.2,0-5.8-2.3-6.4-5.3
			c-0.1-0.5-0.4-0.9-0.8-1.1c-0.2-0.1-0.3-0.1-0.5-0.1c-0.2,0-0.4,0-0.5,0.1c-0.4,0.2-0.7,0.6-0.8,1.1c-0.6,3-3.2,5.3-6.4,5.3
			c-3.6,0-6.5-2.9-6.5-6.5v-6.8c0-0.7,0.6-1.2,1.2-1.2h57.3c0.7,0,1.2,0.6,1.2,1.2v6.8C68.6,61.8,65.6,64.7,62,64.7L62,64.7z"/>
	</g>
</g>
</svg>
