<?xml version="1.0" encoding="utf-8"?>
<!-- Generator: Adobe Illustrator 27.6.1, SVG Export Plug-In . SVG Version: 6.00 Build 0)  -->
<svg version="1.1" id="Layer_1" xmlns="http://www.w3.org/2000/svg" xmlns:xlink="http://www.w3.org/1999/xlink" x="0px" y="0px"
	 width="85px" height="85px" viewBox="0 0 85 85" enable-background="new 0 0 85 85" xml:space="preserve">
<g>
	<circle opacity="0.2" fill="#FF3C5D" cx="50.7" cy="32.8" r="27.6"/>
	<g>
		<path fill-rule="evenodd" clip-rule="evenodd" fill="#555555" d="M62.4,30.2l0.1,1.3c0.1,0.8,0.1,1.9,0.1,3.1
			c2-0.3,3.8,0.2,4.6,0.7l0.6,0.3l0,0.6c0,0.9,0,2.4-0.4,3.9c-0.2,1.1-0.6,2.4-1.3,3.5c0.8,0.5,1.7,1.1,2.5,1.7l0.8,0.6l-0.6,0.8
			c-0.3,0.4-0.6,0.7-1.1,1.1c-0.4,0.3-0.9,0.7-1.5,1c-1.2,0.6-2.6,1.2-4.1,1.7c-1.5,0.4-3.2,0.7-4.8,0.7c-1.6,0-3.2-0.4-4.4-1.4
			c-0.5-0.4-0.6-1.1-0.2-1.5c0.4-0.5,1.1-0.6,1.5-0.2c0.8,0.6,1.9,0.9,3.1,1c1.3,0,2.7-0.2,4.1-0.6c1.4-0.4,2.7-0.9,3.7-1.5
			c0.4-0.2,0.7-0.4,1-0.6c-0.7-0.5-1.5-1-2.2-1.5c-1.5-0.9-3-1.6-4.5-2.2c-5.3-2.1-9.9-2.1-12.7-1.3c-0.7,0.2-1.3,0.5-1.8,0.8
			c-0.5,0.3-1.2,0.2-1.5-0.3c-0.3-0.5-0.2-1.2,0.3-1.5c0.5-0.4,1.2-0.7,1.9-0.9c0.5-0.9,1.4-1.8,2.4-2.5c1.2-0.9,2.7-1.8,4.2-2.6
			c3.1-1.6,6.5-2.9,8.7-3.7L62.4,30.2z M49.3,38.7c2.9-0.2,6.3,0.2,10.1,1.6c0.5-1.2,0.8-2.8,1-4.3c0.1-1,0.1-2,0.1-2.8
			c-2.1,0.8-4.7,1.8-7.1,3.1c-1.5,0.8-2.8,1.6-3.9,2.4C49.4,38.6,49.4,38.7,49.3,38.7z M61.4,41.1c0.9,0.4,1.9,0.9,2.8,1.4
			c0.5-0.8,0.8-1.8,1-2.8c0.2-1,0.3-1.9,0.3-2.7c-0.7-0.2-1.9-0.4-3.1-0.1C62.3,38.3,62,39.8,61.4,41.1z"/>
		<path fill-rule="evenodd" clip-rule="evenodd" fill="#555555" d="M51.6,19.4l0.3,0.8c0.4,1,0.9,2.5,1.2,4c0.1,0.7,0.3,1.5,0.3,2.2
			c0,0.1,0,0.2,0,0.3c1.1,0.1,2.2,0.3,3.1,0.8l0.9,0.5l-0.4,0.9c-0.3,0.7-1.1,1.8-2,3.1c-1,1.3-2.2,2.8-3.5,4.3
			c-1.3,1.5-2.6,2.9-3.7,3.9c-0.6,0.5-1.1,1-1.6,1.3c-0.2,0.2-0.5,0.3-0.7,0.4c-0.2,0.1-0.5,0.2-0.9,0.2l-0.5,0L43.6,42c0,0,0,0,0,0
			c0,0,0,0-0.1-0.1c-0.1-0.1-0.2-0.1-0.3-0.2c-0.2-0.2-0.5-0.4-0.9-0.6c-0.7-0.5-1.7-1.1-2.7-1.8c-2-1.3-4.4-2.8-5.9-3.8L33,35
			l0.4-0.8c0,0,0,0,0-0.1c0,0,0,0,0,0c0,0,0,0,0,0l0,0l0,0c0,0,0,0,0-0.1c0-0.1,0-0.2,0.1-0.3c0.1-0.3,0.3-0.5,0.5-0.7
			c0-0.3,0-0.6,0-0.9c0.1-0.6,0.3-1.2,0.5-1.8c0.5-1.3,1.2-2.8,2-4.2c1.6-3,3.7-6.1,5.1-8l0.9-1.3l0.9,1.3c0.5,0.7,1.2,1.9,1.9,3.3
			c0.6-0.5,1.4-0.8,2.1-1c1.3-0.5,2.6-0.7,3.4-0.8L51.6,19.4z M46.2,23.3c0.5,1.2,1,2.6,1.3,3.9c1.2-0.3,2.5-0.4,3.6-0.5
			c0-0.1,0-0.2,0-0.3c0-0.5-0.1-1.1-0.2-1.8c-0.2-1-0.5-2-0.8-2.9c-0.6,0.1-1.4,0.3-2.1,0.5C47.2,22.6,46.6,23,46.2,23.3z
			 M45.4,27.8c-0.3-1.4-0.9-2.8-1.5-4.1c-0.5-1.2-1.1-2.2-1.6-3.1c-1.3,1.8-2.8,4.2-4,6.5c-0.8,1.4-1.4,2.8-1.8,3.9
			c0,0.1-0.1,0.3-0.1,0.4C38.8,30,42.1,28.6,45.4,27.8z M54.3,29.1c-0.7-0.1-1.4-0.2-2.3-0.2c-1.5,0-3.2,0.3-5,0.7
			c-4.3,1-8.7,2.9-11.1,4.6c1.5,0.9,3.3,2.1,5,3.2c1,0.7,2,1.3,2.7,1.8c0.4,0.3,0.7,0.5,1,0.7c0,0,0,0,0.1,0c0.1,0,0.1-0.1,0.2-0.1
			c0.4-0.3,0.8-0.6,1.4-1.1c1.1-1,2.3-2.3,3.6-3.8c1.2-1.4,2.4-2.9,3.4-4.2C53.6,30.1,54,29.5,54.3,29.1z"/>
		<path fill-rule="evenodd" clip-rule="evenodd" fill="#555555" d="M22.1,29.6L20.4,54c1.3,1.7,2.4,2.9,3.6,3.9
			c0.6-3.4,2.3-9,6.2-14.9l1.8,1.2c-3.6,5.4-5.2,10.5-5.8,13.6c0.9-0.5,1.9-1.2,2.9-1.9c1.8-1.3,3.5-2.8,4.4-4.2l1.8,1.2
			c-1.1,1.7-3.1,3.4-4.9,4.7c-1.1,0.8-2.3,1.6-3.3,2.2c1.3,0.6,2.7,1.1,4.5,1.5l21.8-11.2C42.6,40.5,35.3,35.7,22.1,29.6z
			 M30.2,63.3c-1.9-0.5-3.5-1.1-4.9-1.9l-4.7,7.1l-1.8-1.2l4.7-7.1c-1.5-1.1-2.8-2.4-4.1-4.1L8.9,68.3l14,9.3L30.2,63.3z M18.2,53.9
			L20,29.4c0.1-1.5,1.7-2.5,3.1-1.8c13.4,6.2,20.9,11.2,31.9,21.1c1.1,1,0.9,2.9-0.5,3.5L32.5,63.4l-7.7,15.2
			c-0.6,1.2-2.1,1.5-3.1,0.8l-14-9.3c-1.1-0.7-1.3-2.2-0.5-3.2L18.2,53.9z"/>
		<path fill-rule="evenodd" clip-rule="evenodd" fill="#555555" d="M37.3,14.5l0,1.3c0.1,3.7-0.3,7.2-0.6,10.3c0,0.1,0,0.1,0,0.2
			c-0.4,3.1-0.7,5.9-0.5,8.5l0.1,2l-1.7-1c-1.6-0.9-3.9-2.2-6.3-3.4c-2.4-1.2-4.7-2.3-6.1-2.7l-0.5-0.1l-0.2-0.4
			c-0.7-1.5-1.9-4-2.5-6.7c-0.7-2.6-0.9-5.7,0.3-8.1l0.4-0.8l0.9,0.3c0.9,0.3,2.3,0.9,3.9,1.7c0.9-2.2,2.5-3.7,3.3-4.3l0.5-0.4
			l0.6,0.3c0.8,0.4,2,1.2,3,2.2c0.6,0.6,1.2,1.4,1.6,2.4c0.9-0.4,1.7-0.7,2.6-0.9L37.3,14.5z M31.5,16.8c-0.1-0.6-0.6-1.3-1.2-1.9
			c-0.6-0.6-1.3-1.1-1.8-1.5c-0.7,0.6-1.7,1.8-2.1,3.2c0.9,0.6,1.9,1.2,2.7,2C29.9,17.9,30.7,17.3,31.5,16.8z M27.4,20
			c-0.9-0.7-1.9-1.4-2.9-2c-1.4-0.8-2.7-1.4-3.7-1.8c-0.5,1.6-0.3,3.6,0.2,5.7c0.4,1.5,0.9,3,1.4,4.2c0.3-0.5,0.7-1.1,1.1-1.7
			C24.6,23,25.9,21.4,27.4,20z M23.9,28c1.6,0.6,3.5,1.5,5.4,2.5c1.7,0.9,3.3,1.8,4.7,2.5c0-2.2,0.3-4.5,0.6-6.8c0-0.1,0-0.2,0-0.3
			c0.3-2.7,0.6-5.6,0.6-8.6c-0.7,0.2-1.3,0.6-2,1c-1.2,0.7-2.3,1.6-3.5,2.5c-1.8,1.5-3.3,3.3-4.4,4.8C24.7,26.5,24.2,27.4,23.9,28z"
			/>
	</g>
</g>
</svg>
