<?xml version="1.0" encoding="utf-8"?>
<!-- Generator: Adobe Illustrator 27.6.1, SVG Export Plug-In . SVG Version: 6.00 Build 0)  -->
<svg version="1.1" id="Layer_1" xmlns="http://www.w3.org/2000/svg" xmlns:xlink="http://www.w3.org/1999/xlink" x="0px" y="0px"
	 width="85px" height="85px" viewBox="0 0 85 85" enable-background="new 0 0 85 85" xml:space="preserve">
<g>
	<circle opacity="0.2" fill="#FF3C5D" cx="41.1" cy="34.9" r="27.6"/>
	<g>
		<path fill="#555555" d="M74.9,61h-6.4c1.7-1.5,2.8-3.6,2.8-6.1c0-4.4-3.6-7.6-7-8c0.7-4.7-2.7-8.8-7.2-9.2
			c0.2-0.8,0.4-1.6,0.4-2.4c0-4.2-3.3-7.6-7.3-8c0.2-0.8,0.4-1.6,0.4-2.4c0-4.4-3.6-8-8-8c-5.4,0-9.2,5.2-7.6,10.4
			c-4.1,0.4-7.3,3.8-7.3,8c0,0.8,0.1,1.6,0.4,2.4c-2.6,0.2-4.8,1.6-6.2,3.9c-0.9,1.6-1.3,3.5-1,5.3c-3.4,0.4-7,3.6-7,8
			c0,2.4,1.1,4.6,2.8,6.1h-6.4c-1.9,0-3.5,1.6-3.5,3.5c0,1.9,1.6,3.5,3.5,3.5h2.3c0.2,0.2,3.4,9.7,13.7,9.7h32.8
			c10.3,0,13.6-9.5,13.7-9.7h2.3c1.9,0,3.5-1.6,3.5-3.5C78.4,62.6,76.8,61,74.9,61L74.9,61z M35.5,49.2c3.3,0,5.9,2.6,5.9,5.8
			c0,3.2-2.6,5.8-5.8,5.8c-3.2,0-5.8-2.6-5.8-5.8C29.8,52.1,32.2,49.2,35.5,49.2z M48.3,45.7c0,0.4,0,0.9-0.1,1.3
			c-2.1,0.3-4.1,1.5-5.6,3.8c-1.3-2.2-3.6-3.5-5.6-3.8c-0.3-1.4-0.1-2.9,0.6-4.2C41.2,37.5,48.3,40.3,48.3,45.7L48.3,45.7z
			 M55.2,54.9c0,3.2-2.6,5.8-5.8,5.8c-3.2,0-5.8-2.6-5.8-5.8c0-3.3,2.7-5.8,5.8-5.8C52.5,49.2,55.2,51.8,55.2,54.9z M42.5,59
			c0.4,0.7,1,1.4,1.6,2h-3.3C41.5,60.4,42.1,59.8,42.5,59z M56.3,59c0.4,0.7,1,1.4,1.6,2h-3.3C55.3,60.4,55.9,59.8,56.3,59z
			 M69,54.9c0,3.2-2.6,5.8-5.8,5.8c-3.2,0-5.8-2.6-5.8-5.8c0-2.9,2.2-5.8,6.1-5.8C65.8,49.1,69,51.3,69,54.9z M61.9,47
			c-3.7,0.5-5.5,3.7-5.6,3.9c-0.1-0.1-0.9-1.8-3-2.9c-0.8-0.5-1.7-0.8-2.6-0.9c-0.1-0.4-0.1-0.8-0.1-1.3c0-3.2,2.7-5.8,5.8-5.8
			C60,40,62.7,43.4,61.9,47L61.9,47z M54.4,32.5c0.5,0.9,0.8,1.9,0.8,2.9c0,0.9-0.2,1.7-0.6,2.5c-1.9,0.4-3.7,1.6-4.9,3.3
			c-0.2,0-0.4,0-0.6,0c-1.2-1.7-2.9-2.8-4.9-3.3c-0.4-0.8-0.6-1.6-0.6-2.5C43.6,29.6,51.4,27.4,54.4,32.5L54.4,32.5z M42.5,19.3
			c3.2,0,5.8,2.6,5.8,5.8c0,0.9-0.2,1.7-0.6,2.5c-2.5,0.5-3.9,1.9-5.2,3.8c-0.1-0.1-1.6-3-5.2-3.8C35.5,23.8,38.2,19.3,42.5,19.3z
			 M40.6,32.5c0.5,0.9,0.8,1.9,0.8,2.9c0,0.9-0.2,1.7-0.6,2.5c-1.9,0.4-3.7,1.6-4.9,3.3c-0.2,0-0.4,0-0.6,0c-1.2-1.7-3-2.8-4.9-3.3
			c-0.4-0.8-0.6-1.6-0.6-2.5C29.8,29.5,37.6,27.4,40.6,32.5L40.6,32.5z M23.7,42.8c1-1.8,2.9-2.8,5-2.8c3.7,0,6.5,3.5,5.6,7
			c-2.1,0.3-4.4,1.7-5.6,3.8c-1.5-2.1-3-3.4-5.6-3.8C22.7,45.6,23,44.1,23.7,42.8L23.7,42.8z M16,54.9c0-3.6,3.4-6.2,6-5.8
			c3.9,0.7,5.5,3.1,5.5,5.8c0,3.2-2.6,5.8-5.8,5.8C18.6,60.7,16,58.1,16,54.9z M28.7,59c0.4,0.7,1,1.4,1.6,2h-3.3
			C27.7,60.4,28.3,59.8,28.7,59z M58.9,75.4H26.1c-4.7,0-9-2.7-11-7l-0.2-0.5h55.3C70,68.1,67.2,75.4,58.9,75.4L58.9,75.4z
			 M74.9,65.7c-74.9,0-59.9,0-64.8,0c-0.7,0-1.2-0.6-1.2-1.2s0.6-1.2,1.2-1.2h64.8c0.7,0,1.2,0.6,1.2,1.2S75.6,65.7,74.9,65.7z"/>
		<path fill="#555555" d="M35.6,51.4h2.2v2.2h-2.2V51.4z"/>
		<path fill="#555555" d="M21.8,51.4H24v2.2h-2.2V51.4z"/>
		<path fill="#555555" d="M49.4,51.4h2.2v2.2h-2.2V51.4z"/>
		<path fill="#555555" d="M63.2,51.4h2.2v2.2h-2.2L63.2,51.4z"/>
		<path fill="#555555" d="M28.7,42.1h2.2v2.2h-2.2V42.1z"/>
		<path fill="#555555" d="M42.5,42.1h2.2v2.2h-2.2V42.1z"/>
		<path fill="#555555" d="M56.3,42.1h2.2v2.2h-2.2V42.1z"/>
		<path fill="#555555" d="M35.6,31.8h2.2v2.2h-2.2V31.8z"/>
		<path fill="#555555" d="M49.4,31.8h2.2v2.2h-2.2V31.8z"/>
		<path fill="#555555" d="M42.5,21.5h2.2v2.2h-2.2V21.5z"/>
	</g>
</g>
</svg>
