<?xml version="1.0" encoding="utf-8"?>
<!-- Generator: Adobe Illustrator 27.6.1, SVG Export Plug-In . SVG Version: 6.00 Build 0)  -->
<svg version="1.1" id="Layer_1" xmlns="http://www.w3.org/2000/svg" xmlns:xlink="http://www.w3.org/1999/xlink" x="0px" y="0px"
	 width="85px" height="85px" viewBox="0 0 85 85" style="enable-background:new 0 0 85 85;" xml:space="preserve">
<style type="text/css">
	.st0{opacity:0.2;fill:#FF3C5D;enable-background:new    ;}
	.st1{fill:none;stroke:#555555;stroke-width:2.76;stroke-miterlimit:10;}
	.st2{enable-background:new    ;}
	.st3{fill:#555555;}
</style>
<circle class="st0" cx="50.7" cy="52.2" r="27.6"/>
<g>
	<path class="st1" d="M43.3,7.2l5-1.6c3.2-1,6.6,0.3,8.4,3.1l2.8,4.5c0.8,1.3,2,2.3,3.4,2.9l4.8,2c3.1,1.3,4.9,4.5,4.5,7.9l-0.7,5.3
		c-0.2,1.5,0.1,3,0.8,4.4l2.4,4.7c1.5,3,0.9,6.7-1.6,8.9l-3.8,3.6c-1.1,1-1.9,2.4-2.2,3.9L65.9,62c-0.7,3.3-3.5,5.7-6.9,5.8L53.8,68
		c-1.5,0.1-2.9,0.6-4.1,1.5l-4.2,3.2c-2.6,2-6.3,2-9,0l-4.2-3.2c-1.2-0.9-2.6-1.5-4.1-1.5L23,67.7c-3.3-0.2-6.1-2.5-6.9-5.8
		l-1.2-5.2c-0.3-1.5-1.1-2.8-2.2-3.9l-3.8-3.6C6.6,47,6,43.3,7.5,40.3l2.4-4.7c0.7-1.3,1-2.9,0.8-4.4L10,25.9
		c-0.4-3.3,1.4-6.6,4.5-7.9l4.8-2c1.4-0.6,2.6-1.6,3.4-2.9l2.8-4.5c1.8-2.8,5.2-4.1,8.4-3.1l5,1.6C40.3,7.6,41.8,7.6,43.3,7.2"/>
	<g class="st2">
		<path class="st3" d="M18.7,47.9c-0.5,0-1-0.2-1.3-0.5c-0.3-0.3-0.5-0.7-0.5-1.2V33c0-0.7,0.2-1.2,0.6-1.6c0.4-0.4,0.9-0.5,1.4-0.5
			c0.4,0,0.7,0.1,1.1,0.3c0.3,0.2,0.6,0.5,0.9,0.8l5.8,8.8c0.1,0.2,0.3,0.3,0.5,0.3c0.3,0,0.4-0.2,0.4-0.5l-0.3-8
			c0-0.5,0.1-1,0.5-1.3c0.3-0.3,0.8-0.4,1.3-0.4s1,0.1,1.3,0.4c0.3,0.3,0.5,0.7,0.5,1.3v13.1c0,0.7-0.2,1.2-0.6,1.6
			c-0.4,0.4-0.9,0.6-1.4,0.6c-0.3,0-0.7-0.1-1-0.3c-0.3-0.2-0.6-0.5-0.9-0.8l-5.7-9.1c-0.1-0.2-0.3-0.3-0.5-0.3
			c-0.3,0-0.4,0.2-0.4,0.5l0.2,8.2c0,0.5-0.1,0.9-0.5,1.2C19.7,47.7,19.2,47.9,18.7,47.9z"/>
		<path class="st3" d="M37.1,47.5c-0.8,0-1.4-0.2-1.9-0.7s-0.7-1.1-0.7-1.9V33.6c0-0.8,0.2-1.4,0.7-1.8c0.5-0.4,1.1-0.7,1.8-0.7h6
			c1.1,0,1.7,0.5,1.7,1.6c0,0.5-0.2,0.8-0.5,1.2c-0.3,0.3-0.7,0.5-1.2,0.5h-4.1c-0.5,0-0.8,0.3-0.8,0.8v1.6c0,0.5,0.3,0.8,0.8,0.8
			h3.5c0.5,0,0.9,0.1,1.2,0.4c0.3,0.3,0.4,0.7,0.4,1.2c0,0.4-0.2,0.8-0.5,1.1c-0.3,0.3-0.7,0.5-1.2,0.5h-3.5c-0.5,0-0.8,0.3-0.8,0.8
			v1.8c0,0.5,0.3,0.8,0.8,0.8h4.5c0.5,0,0.9,0.1,1.2,0.4s0.5,0.7,0.5,1.2c0,0.5-0.2,0.8-0.5,1.2c-0.3,0.3-0.7,0.5-1.2,0.5H37.1z"/>
		<path class="st3" d="M51.9,47.9c-0.6,0-1.1-0.2-1.5-0.5c-0.5-0.4-0.7-0.8-0.8-1.4l-2.4-13.1c-0.1-0.5,0.1-1,0.5-1.3
			c0.4-0.3,0.8-0.5,1.3-0.5c0.5,0,0.8,0.1,1.2,0.4c0.3,0.3,0.5,0.6,0.6,1.1l1.4,8.9c0.1,0.3,0.2,0.5,0.4,0.5c0.2,0,0.3-0.1,0.4-0.4
			l1.9-7.2c0.1-0.5,0.4-0.9,0.8-1.2c0.4-0.3,0.8-0.4,1.2-0.4c0.4,0,0.8,0.1,1.2,0.4c0.4,0.3,0.6,0.6,0.8,1.2l1.9,7.2
			c0.1,0.3,0.2,0.4,0.4,0.4c0.2,0,0.3-0.2,0.4-0.5l1.4-8.9c0.1-0.5,0.3-0.8,0.6-1.1c0.3-0.3,0.7-0.4,1.1-0.4c0.5,0,1,0.2,1.3,0.5
			c0.4,0.4,0.5,0.8,0.5,1.3l-2.5,13.1c-0.1,0.6-0.4,1.1-0.8,1.4c-0.5,0.4-1,0.5-1.5,0.5c-0.5,0-1-0.2-1.4-0.5
			c-0.4-0.3-0.8-0.8-1-1.4l-2-7.1c-0.1-0.3-0.2-0.4-0.4-0.4c-0.2,0-0.3,0.1-0.4,0.4l-2,7.1c-0.2,0.6-0.5,1-0.9,1.4
			C52.9,47.7,52.4,47.9,51.9,47.9z"/>
	</g>
</g>
</svg>
