<?xml version="1.0" encoding="utf-8"?>
<!-- Generator: Adobe Illustrator 27.6.1, SVG Export Plug-In . SVG Version: 6.00 Build 0)  -->
<svg version="1.1" id="Layer_1" xmlns="http://www.w3.org/2000/svg" xmlns:xlink="http://www.w3.org/1999/xlink" x="0px" y="0px"
	 width="85px" height="85px" viewBox="0 0 85 85" enable-background="new 0 0 85 85" xml:space="preserve">
<g>
	<circle opacity="0.2" fill="#FF3C5D" cx="50.3" cy="46.6" r="22.1"/>
	<path fill="#555555" d="M62,35.7H39.2v-5.6l0.3,0c2.6-0.1,7.5-0.8,10.8-4.1c4.5-4.5,4.2-11.9,4.2-12.2c0-0.7-0.6-1.2-1.2-1.2
		c-0.1,0-0.3,0-0.5,0c-1.8,0-7.8,0.3-11.7,4.2c-0.9,0.9-1.7,2-2.3,3.3l-0.4,0.7L38.1,20c-0.9-2.6-2.2-4.7-3.9-6.4
		c-4.8-4.8-12.5-5.2-14.7-5.2c-0.3,0-0.5,0-0.6,0c-0.7,0-1.2,0.6-1.3,1.2c0,0.4-0.4,9.7,5.2,15.4c4.1,4.1,10.2,5,13.4,5.2l0.3,0v5.6
		H13.9c-0.7,0-1.3,0.6-1.3,1.3v10.4c0,0.7,0.6,1.3,1.3,1.3h2.7l2.3,8l5.2,18.2c0.3,1,1.2,1.7,2.3,1.7h23.7c1.1,0,2-0.7,2.3-1.7
		l7.5-26.2H62c0.7,0,1.2-0.5,1.3-1.2V37C63.3,36.3,62.7,35.7,62,35.7z M39.5,27.2c0.2-2.1,0.8-6.1,3.4-8.6c2.6-2.6,6.5-3.2,8.6-3.4
		l0.4,0l0,0.4c-0.1,2.1-0.8,6.1-3.4,8.6c-2.6,2.6-6.5,3.2-8.6,3.4l-0.4,0L39.5,27.2z M36.5,27.6c-2.9-0.1-8.3-0.9-11.8-4.4
		c-3.5-3.5-4.3-8.9-4.4-11.8l0-0.4l0.4,0c2.9,0.1,8.3,0.9,11.8,4.4c3.5,3.5,4.3,8.9,4.4,11.8l0,0.4L36.5,27.6z M48.6,74.1H27.9
		c-0.8,0-1.5-0.5-1.7-1.3l-6.7-23.2c-0.1-0.4,0.2-0.8,0.6-0.8h36.3c0.4,0,0.7,0.4,0.6,0.8l-6.7,23.2C50.1,73.5,49.4,74.1,48.6,74.1z
		 M60.1,46.2H15.8c-0.3,0-0.6-0.3-0.6-0.6v-6.6c0-0.3,0.3-0.6,0.6-0.6h44.3c0.3,0,0.5,0.2,0.5,0.5v6.8
		C60.7,45.9,60.4,46.2,60.1,46.2z"/>
</g>
</svg>
