<?xml version="1.0" encoding="utf-8"?>
<!-- Generator: Adobe Illustrator 27.7.0, SVG Export Plug-In . SVG Version: 6.00 Build 0)  -->
<svg version="1.1" xmlns="http://www.w3.org/2000/svg" xmlns:xlink="http://www.w3.org/1999/xlink" x="0px" y="0px" width="85px"
	 height="85px" viewBox="0 0 85 85" enable-background="new 0 0 85 85" xml:space="preserve">
<g id="Layer_3">
</g>
<g id="Layer_1">
</g>
<g id="Layer_2">
	<circle opacity="0.2" fill="#FF3C5D" cx="30.6" cy="37" r="27.6"/>
	<path fill="none" stroke="#555555" stroke-width="1.5" stroke-miterlimit="10" d="M54.5,63.8c0,0,2.7,6.9-2.2,11.1
		s-11.6-0.2-11.6-0.2s-5.2-4-1.9-5.5c3.3-1.5,1.1,5.7,1.1,5.7s-3.4,9-17.4,9.7S6,75.2,6,75.2"/>
	<path fill="none" stroke="#555555" stroke-width="1.5" stroke-miterlimit="10" d="M57.6,21.6c0,0,1.4-2.6-1.2-5.1
		c-2.6-2.5-1.7-5.2-1.7-5.2s0.7-3.2,4.6-3.9s5.5,0.6,5.5,0.6s3.1,2,0,5.2c0,0-2.9,3.1-5.5-2.4s7.3-9.8,7.3-9.8s6-2.6,10.8,4.8"/>
	<g>
		<g>
			<g>
				<path fill="#555555" d="M59.4,30.5c0.5,0,0.9,0.3,1.2,0.8c0.2,0.4,0.3,0.9,0.4,1.4c0,1.1-0.2,2.1-0.6,3.1
					c-0.6,1.7-1.5,3.1-2.5,4.6c-0.1,0.1-0.1,0.2-0.2,0.3c0.1-0.1,0.2-0.2,0.3-0.3c1.3-1.3,2.6-2.5,4.2-3.5c0.9-0.5,1.9-1,3.1-1
					c0,0,0.1,0,0.1,0c0.3,0,0.7,0.1,1,0.2c0.8,0.3,1.1,0.9,0.8,1.7c-0.2,0.8-0.8,1.4-1.5,1.9c-1.3,1-2.8,1.6-4.3,2
					c-1,0.3-2,0.4-3,0.6c0,0-0.1,0-0.1,0c0.4,0,0.7,0,1.1,0c0.2,0,0.4,0,0.6,0c1.6,0,3.2,0.2,4.8,0.7c1,0.3,2,0.8,2.7,1.6
					c0.2,0.2,0.4,0.6,0.5,0.9c0.2,0.6-0.1,1.1-0.6,1.4c-0.5,0.3-1.1,0.4-1.7,0.4c-0.1,0-0.2,0-0.3,0c-1.6-0.1-3-0.6-4.3-1.4
					c-0.9-0.5-1.8-1.1-2.8-1.7c-0.1-0.1-0.2-0.1-0.3-0.1c0.2,0.2,0.3,0.3,0.5,0.5c1.4,1.4,2.7,2.9,3.6,4.7c0.4,0.9,0.7,1.7,0.7,2.7
					c0,0.2-0.1,0.4-0.1,0.7c-0.2,0.6-0.7,1-1.3,1c-0.2,0-0.3,0-0.5-0.1c-0.8-0.2-1.4-0.8-1.9-1.4c-0.9-1.1-1.4-2.4-1.8-3.7
					c-0.3-1.1-0.5-2.2-0.8-3.3c0,0,0-0.1-0.1-0.1c0,0.1,0,0.3,0,0.4c0,1.5,0,3-0.3,4.4c-0.3,1.2-0.6,2.5-1.4,3.5
					c-0.2,0.3-0.5,0.6-0.9,0.8c-0.3,0.2-0.6,0.3-0.9,0.3c-0.5,0-1-0.3-1.3-1c-0.2-0.6-0.3-1.2-0.3-1.8c0.1-1.7,0.7-3.2,1.6-4.6
					c0.4-0.7,0.9-1.4,1.3-2.2c0.1-0.1,0.2-0.3,0.3-0.4c0,0-0.1-0.1-0.1-0.1c-0.4,0.5-0.8,1-1.3,1.4c-1.3,1.2-2.7,2.2-4.3,2.9
					c-0.6,0.2-1.2,0.4-1.9,0.4c-0.2,0-0.3,0-0.5,0c-0.1,0-0.3-0.1-0.4-0.1c-0.8-0.3-1.2-1-0.9-1.8c0.2-0.6,0.6-1.1,1.1-1.5
					c1.1-1,2.4-1.6,3.8-2c1.2-0.3,2.4-0.6,3.5-0.8c0.1,0,0.2,0,0.3-0.1c-0.4,0-0.9,0-1.3,0c-0.3,0-0.5,0-0.8,0
					c-1.6,0-3.3-0.2-4.8-0.8c-0.8-0.3-1.6-0.7-2.2-1.4c-0.2-0.2-0.3-0.4-0.4-0.6c-0.4-0.7-0.1-1.4,0.6-1.8c0.5-0.3,1.1-0.4,1.6-0.4
					c0.1,0,0.2,0,0.2,0c1.5,0.1,2.8,0.6,4.1,1.2c1.1,0.6,2.2,1.2,3.2,2c0.1,0.1,0.2,0.1,0.3,0.2c-0.1-0.1-0.3-0.3-0.4-0.4
					c-1.4-1.3-2.6-2.6-3.5-4.3c-0.5-0.8-0.9-1.7-1-2.7c0-0.4,0-0.9,0.1-1.3c0.2-0.6,0.7-1,1.3-1c0.2,0,0.3,0,0.5,0.1
					c0.8,0.2,1.4,0.8,1.9,1.5c1,1.3,1.6,2.7,2,4.3c0.3,1,0.5,2,0.7,3c0-0.1,0-0.2,0-0.2c0-1.4,0-2.8,0.2-4.3
					c0.2-1.3,0.6-2.6,1.3-3.8c0.3-0.5,0.7-0.9,1.2-1.2C59,30.6,59.2,30.5,59.4,30.5 M59.4,29c-0.5,0-1,0.1-1.4,0.4
					c-0.7,0.4-1.3,0.9-1.8,1.7c-0.4,0.6-0.7,1.3-0.9,2c-0.2-0.4-0.5-0.8-0.7-1.1c-0.5-0.7-1.4-1.6-2.7-2c-0.3-0.1-0.6-0.1-0.9-0.1
					c-1.3,0-2.4,0.8-2.7,2.1C48,32.5,48,33.1,48,33.7c0.1,1.1,0.5,2,0.8,2.8c-0.6-0.2-1.3-0.3-2-0.3c-0.1,0-0.2,0-0.3,0
					c-0.9,0-1.7,0.2-2.4,0.6c-1.4,0.8-1.9,2.4-1.2,3.8c0.2,0.3,0.4,0.6,0.6,0.9c0.9,1,1.9,1.5,2.8,1.8c0.1,0,0.2,0.1,0.4,0.1
					c-0.6,0.3-1.1,0.7-1.6,1.1c-0.7,0.7-1.2,1.4-1.5,2.2c-0.3,0.8-0.2,1.6,0.1,2.3c0.3,0.7,0.9,1.2,1.7,1.5c0.2,0.1,0.4,0.1,0.7,0.2
					c0.2,0,0.5,0.1,0.7,0.1c1,0,1.8-0.3,2.5-0.5c0.3-0.1,0.5-0.2,0.8-0.4c-0.2,0.6-0.3,1.2-0.3,1.8c-0.1,0.9,0,1.8,0.4,2.5
					c0.5,1.2,1.5,1.9,2.7,1.9c0.6,0,1.2-0.2,1.7-0.5c0.4-0.3,0.9-0.7,1.2-1.1c0.6-0.8,1-1.6,1.3-2.4c0.2,0.4,0.5,0.8,0.8,1.2
					c0.6,0.7,1.4,1.6,2.6,2c0.3,0.1,0.6,0.1,0.9,0.1c1.3,0,2.3-0.8,2.7-2c0.1-0.3,0.2-0.7,0.2-1c0.1-1.4-0.4-2.7-0.8-3.4
					c0,0,0-0.1-0.1-0.1c0.7,0.2,1.3,0.3,1.9,0.3c0.1,0,0.3,0,0.4,0c1,0,1.8-0.2,2.5-0.7c1.1-0.7,1.6-1.9,1.2-3.1
					c-0.1-0.5-0.4-1-0.8-1.4c-0.9-1.1-2.2-1.7-3.2-2c0.4-0.2,0.8-0.5,1.2-0.8c0.7-0.5,1.6-1.4,2-2.7c0.5-1.6-0.3-3.1-1.8-3.6
					c-0.5-0.2-1-0.2-1.5-0.2c-0.1,0-0.1,0-0.2,0c-1.2,0.1-2.2,0.4-3,0.9c0.3-0.9,0.4-1.8,0.3-2.6c0-0.8-0.2-1.5-0.6-2.1
					C61.4,29.6,60.5,29,59.4,29L59.4,29z"/>
			</g>
			<g>
				<circle fill="#555555" cx="56.2" cy="42.5" r="1.3"/>
			</g>
			<g>
				<path fill="#555555" d="M56.2,25.4c9.4,0,17.1,7.6,17.1,17.1c0,9.4-7.6,17.1-17.1,17.1c-9.4,0-17.1-7.6-17.1-17.1
					C39.1,33,46.7,25.4,56.2,25.4 M56.2,23.9c-10.2,0-18.6,8.3-18.6,18.6s8.3,18.6,18.6,18.6s18.6-8.3,18.6-18.6
					S66.4,23.9,56.2,23.9L56.2,23.9z"/>
			</g>
		</g>
		<path fill="none" stroke="#555555" stroke-width="1.5" stroke-miterlimit="10" d="M54.9,24.9l1.9-3c0.3-0.5,1.1-0.5,1.4,0l1.8,3.5
			L54.9,24.9z"/>
		<path fill="none" stroke="#555555" stroke-width="1.5" stroke-miterlimit="10" d="M57.2,60.3l-1.7,3.1c-0.3,0.5-1.1,0.5-1.4,0
			l-2-3.4L57.2,60.3z"/>
	</g>
	<g>
		<circle fill="none" stroke="#555555" stroke-width="1.5" stroke-miterlimit="10" cx="77.8" cy="6.8" r="1"/>
		<path fill="none" stroke="#555555" stroke-width="1.5" stroke-miterlimit="10" d="M77.3,7.7l0,3.7c2.3-0.1,3.6-0.8,4.3-2.3
			l-2.8-2.4"/>
	</g>
	<g>
		<circle fill="none" stroke="#555555" stroke-width="1.5" stroke-miterlimit="10" cx="5.7" cy="74.3" r="1"/>
		<path fill="none" stroke="#555555" stroke-width="1.5" stroke-miterlimit="10" d="M6.1,73.3l0-3.7c-2.3,0.1-3.6,0.8-4.3,2.3
			l2.8,2.4"/>
	</g>
	<g>
		<g>
			<path fill="#555555" d="M20,33.1c0.7,0,1.3,0.2,1.7,0.7l0.4,0.4h0.6c0.7,0,1.3,0.2,1.7,0.7c0.5,0.5,0.7,1.1,0.7,1.7v0.6l0.4,0.4
				c0.5,0.5,0.7,1.1,0.7,1.7s-0.2,1.3-0.7,1.7l-0.4,0.4v0.6c0,0.7-0.2,1.3-0.7,1.7c-0.5,0.5-1.1,0.7-1.7,0.7h-0.6l-0.4,0.4
				c-0.5,0.5-1.2,0.8-1.8,0.8c-0.7,0-1.3-0.2-1.7-0.7l-0.4-0.4h-0.6c-0.7,0-1.3-0.2-1.7-0.7c-0.5-0.5-0.7-1.1-0.7-1.7v-0.6l-0.4-0.4
				c-0.5-0.5-0.7-1.1-0.7-1.7c0-0.7,0.2-1.3,0.7-1.7l0.4-0.4v-0.6c0-0.7,0.2-1.3,0.7-1.7c0.5-0.5,1.1-0.7,1.7-0.7h0.6l0.4-0.4
				C18.7,33.3,19.3,33.1,20,33.1 M20,31.6c-1.1,0-2.1,0.4-2.8,1.2c-1.1,0-2.1,0.4-2.8,1.2s-1.2,1.7-1.2,2.8
				c-0.7,0.7-1.2,1.7-1.2,2.8c0,1.1,0.4,2.1,1.2,2.8c0,1.1,0.4,2.1,1.2,2.8c0.7,0.7,1.7,1.2,2.8,1.2c0.7,0.7,1.7,1.2,2.8,1.2
				c1,0,2-0.4,2.8-1.2c1.1,0,2.1-0.4,2.8-1.2c0.7-0.7,1.2-1.7,1.2-2.8c0.7-0.7,1.2-1.7,1.2-2.8c0-1.1-0.4-2.1-1.2-2.8
				c0-1.1-0.4-2.1-1.2-2.8s-1.7-1.2-2.8-1.2C22,32,21,31.6,20,31.6L20,31.6z"/>
		</g>
		
			<path fill="none" stroke="#555555" stroke-width="1.5" stroke-linecap="round" stroke-linejoin="round" stroke-miterlimit="10" d="
			M23.6,7.3c0,0,3.7,6.8-2.3,12.6c-2.8,2.7-2,5.8-2,5.8l0.5,2.1"/>
		
			<path fill="none" stroke="#555555" stroke-width="1.5" stroke-linecap="round" stroke-linejoin="round" stroke-miterlimit="10" d="
			M19.9,51.5c0,0,3.7,6.8-2.3,12.6c-2.8,2.7-2,5.8-2,5.8l0.5,2.1"/>
		
			<circle fill="none" stroke="#555555" stroke-width="1.5" stroke-linecap="round" stroke-linejoin="round" stroke-miterlimit="10" cx="20" cy="39.5" r="3.8"/>
		
			<circle fill="none" stroke="#555555" stroke-width="1.5" stroke-linecap="round" stroke-linejoin="round" stroke-miterlimit="10" cx="20.1" cy="29.7" r="2"/>
		
			<circle fill="none" stroke="#555555" stroke-width="1.5" stroke-linecap="round" stroke-linejoin="round" stroke-miterlimit="10" cx="19.9" cy="49.2" r="2"/>
		
			<path fill="none" stroke="#555555" stroke-width="1.5" stroke-linecap="round" stroke-linejoin="round" stroke-miterlimit="10" d="
			M21,5.8l2.8,1.5l-1-2.8C21.9,4.4,21.3,5,21,5.8z"/>
		
			<polygon fill="none" stroke="#555555" stroke-width="1.5" stroke-linecap="round" stroke-linejoin="round" stroke-miterlimit="10" points="
			18.3,74.9 16.3,72.5 16.1,75.4 		"/>
	</g>
</g>
</svg>
