<?xml version="1.0" encoding="utf-8"?>
<!-- Generator: Adobe Illustrator 27.6.1, SVG Export Plug-In . SVG Version: 6.00 Build 0)  -->
<svg version="1.1" id="Layer_1" xmlns="http://www.w3.org/2000/svg" xmlns:xlink="http://www.w3.org/1999/xlink" x="0px" y="0px"
	 width="85px" height="85px" viewBox="0 0 85 85" enable-background="new 0 0 85 85" xml:space="preserve">
<g>
	<circle opacity="0.2" fill="#FF3C5D" cx="54.2" cy="50.3" r="27.6"/>
	
		<path fill="none" stroke="#555555" stroke-width="2.1798" stroke-linecap="round" stroke-linejoin="round" stroke-miterlimit="10" d="
		M19.9,59.6h-4c-2.1,0-3.8-1.7-3.8-3.8V25.7c0-2.1,1.7-3.8,3.8-3.8h38.8c2.1,0,3.8,1.7,3.8,3.8v33.9H33"/>
	
		<path fill="none" stroke="#555555" stroke-width="2.1798" stroke-linecap="round" stroke-linejoin="round" stroke-miterlimit="10" d="
		M63.8,59.6h-5.2V33.5h12c4.4,4.4,6.9,6.9,11.3,11.3v12c0,1.6-1.3,2.9-2.9,2.9h-2.2"/>
	
		<path fill="none" stroke="#555555" stroke-width="2.1798" stroke-linecap="round" stroke-linejoin="round" stroke-miterlimit="10" d="
		M81.8,48H70.2v-8.7h5.6c4.6,4.6,1.4,1.4,6.1,6.1V48z"/>
	
		<circle fill="none" stroke="#555555" stroke-width="2.1798" stroke-linecap="round" stroke-linejoin="round" stroke-miterlimit="10" cx="70.2" cy="59.6" r="5.8"/>
	
		<circle fill="none" stroke="#555555" stroke-width="2.1798" stroke-linecap="round" stroke-linejoin="round" stroke-miterlimit="10" cx="26.6" cy="59.6" r="5.8"/>
	<g>
		<g>
			<path fill="#555555" d="M38.4,23.4L38,20.8c-1-4.1-3.4-7.7-6.8-10.2c-3.4-2.5-7.6-3.7-11.8-3.3c-4.2,0.3-8.1,2.1-11.1,5.1
				c-3,3-4.8,6.9-5.1,11.1c-0.3,4.2,0.9,8.4,3.3,11.8c2.5,3.4,6.1,5.8,10.2,6.8l2.7,0.4c0.5,0,0.9,0.1,1.4,0.1
				c4.7,0,9.2-1.9,12.5-5.2c3.3-3.3,5.2-7.8,5.2-12.5C38.5,24.3,38.4,23.9,38.4,23.4z M34.4,25.8h1.7l0,0.4c-0.3,3.1-1.5,6-3.5,8.4
				l-0.3,0.3l-1.3-1.3c-0.4-0.4-1-0.4-1.4,0c-0.2,0.2-0.3,0.4-0.3,0.7c0,0.3,0.1,0.5,0.3,0.7l1.3,1.3l-0.3,0.3
				c-2.4,2-5.3,3.2-8.4,3.5l-0.4,0v-1.7c0-0.6-0.4-1-1-1c-0.6,0-1,0.5-1,1v1.7l-0.4,0c-3.1-0.3-6-1.5-8.4-3.5l-0.3-0.3L12,35
				c0.4-0.4,0.4-1,0-1.4c-0.2-0.2-0.4-0.3-0.7-0.3c-0.3,0-0.5,0.1-0.7,0.3l-1.3,1.3l-0.3-0.3c-2-2.4-3.2-5.3-3.5-8.4l0-0.4h1.7
				c0.6,0,1-0.4,1-1s-0.4-1-1-1H5.5l0-0.4c0.3-3.1,1.5-6,3.5-8.4l0.3-0.3l1.3,1.3c0.4,0.4,1,0.4,1.4,0c0.4-0.4,0.4-1,0-1.4l-1.3-1.3
				L11,13c2.4-2,5.3-3.2,8.4-3.5l0.4,0v1.7c0,0.6,0.4,1,1,1c0.6,0,1-0.4,1-1V9.5l0.4,0c3.1,0.3,6,1.5,8.4,3.5l0.3,0.3l-1.3,1.3
				c-0.2,0.2-0.3,0.4-0.3,0.7c0,0.3,0.1,0.5,0.3,0.7c0.2,0.2,0.5,0.3,0.7,0.3c0.3,0,0.5-0.1,0.7-0.3l1.3-1.3l0.3,0.3
				c2,2.4,3.2,5.3,3.5,8.4l0,0.4h-1.7c-0.6,0-1,0.5-1,1S33.9,25.8,34.4,25.8z"/>
			<path fill="#FFFFFF" d="M34.4,23.8h1.7l0-0.4c-0.3-3.1-1.5-6-3.5-8.4l-0.3-0.3L31,16c-0.2,0.2-0.4,0.3-0.7,0.3
				c-0.2,0-0.5-0.1-0.7-0.3c-0.2-0.2-0.3-0.5-0.3-0.7c0-0.3,0.1-0.5,0.3-0.7l1.3-1.3L30.6,13c-2.4-2-5.3-3.2-8.4-3.5l-0.4,0v1.7
				c0,0.6-0.4,1-1,1c-0.6,0-1-0.4-1-1V9.5l-0.4,0c-3.1,0.3-6,1.5-8.4,3.5l-0.3,0.3l1.3,1.3c0.4,0.4,0.4,1,0,1.4
				c-0.4,0.4-1,0.4-1.4,0l-1.3-1.3L9.1,15c-2,2.4-3.2,5.3-3.5,8.4l0,0.4h1.7c0.6,0,1,0.5,1,1s-0.4,1-1,1H5.5l0,0.4
				c0.3,3.1,1.5,6,3.5,8.4l0.3,0.3l1.3-1.3c0.2-0.2,0.4-0.3,0.7-0.3c0.3,0,0.5,0.1,0.7,0.3c0.4,0.4,0.4,1,0,1.4l-1.3,1.3l0.3,0.3
				c2.4,2,5.3,3.2,8.4,3.5l0.4,0v-1.7c0-0.6,0.4-1,1-1c0.6,0,1,0.5,1,1v1.7l0.4,0c3.1-0.3,6-1.5,8.4-3.5l0.3-0.3L29.6,35
				c-0.2-0.2-0.3-0.4-0.3-0.7c0-0.3,0.1-0.5,0.3-0.7c0.4-0.4,1-0.4,1.4,0l1.3,1.3l0.3-0.3c2-2.4,3.2-5.3,3.5-8.4l0-0.4h-1.7
				c-0.6,0-1-0.4-1-1S33.9,23.8,34.4,23.8z"/>
		</g>
		
			<polyline fill="none" stroke="#555555" stroke-width="2.069" stroke-linecap="round" stroke-linejoin="round" stroke-miterlimit="10" points="
			21.1,17.2 21.1,25.4 26.6,25.4 		"/>
	</g>
</g>
</svg>
