<?xml version="1.0" standalone="no"?>
<!DOCTYPE svg PUBLIC "-//W3C//DTD SVG 20010904//EN"
 "http://www.w3.org/TR/2001/REC-SVG-20010904/DTD/svg10.dtd">
<svg version="1.0" xmlns="http://www.w3.org/2000/svg"
 width="1053.000000pt" height="1053.000000pt" viewBox="0 0 1053.000000 1053.000000"
 preserveAspectRatio="xMidYMid meet">
<metadata>
Created by potrace 1.14, written by Peter Selinger 2001-2017
</metadata>
<g transform="translate(0.000000,1053.000000) scale(0.100000,-0.100000)"
fill="#000000" stroke="none">
<path d="M7391 8424 c-34 -7 -96 -30 -137 -50 -72 -35 -113 -75 -996 -957
l-920 -921 -917 919 c-987 988 -950 955 -1092 991 -55 14 -130 16 -539 16
-318 0 -492 -4 -525 -12 -27 -6 -84 -27 -125 -47 -73 -34 -99 -59 -1038 -997
-569 -568 -979 -984 -1002 -1018 -21 -32 -49 -88 -62 -125 l-23 -68 0 -950 c0
-1066 -5 -996 74 -1126 48 -79 1816 -1850 1895 -1897 29 -18 79 -42 112 -55
58 -22 69 -22 566 -25 552 -3 582 -1 691 54 91 47 22 -21 1155 1123 433 437
800 807 817 822 l30 29 53 -53 c326 -318 1644 -1644 1666 -1675 15 -23 68 -79
116 -126 94 -91 187 -144 288 -165 33 -7 201 -11 450 -11 366 0 403 2 469 20
78 21 123 44 193 95 25 19 448 438 941 932 822 825 899 904 931 968 67 131 66
111 66 1194 -1 1075 1 1047 -65 1175 -34 66 -101 136 -927 962 -952 952 -921
923 -1066 970 -49 15 -108 17 -535 19 -358 1 -497 -2 -544 -11z m-3934 -2393
c362 -362 669 -670 682 -684 l24 -26 -594 -594 c-491 -490 -606 -600 -659
-630 -180 -100 -400 -91 -568 25 -80 55 -735 718 -770 780 -108 188 -99 418
22 583 31 43 1186 1205 1198 1205 3 0 303 -296 665 -659z m4583 474 c66 -12
148 -47 215 -91 27 -19 719 -709 761 -760 134 -162 147 -417 33 -608 -22 -36
-212 -234 -576 -598 l-543 -543 -700 700 c-385 385 -700 703 -700 706 0 16
1068 1082 1115 1113 117 78 253 106 395 81z"/>
</g>
</svg>
